<svg width="186" height="145" viewBox="0 0 186 145" fill="none" xmlns="http://www.w3.org/2000/svg">
<path d="M100.611 95.9203C92.8119 97.1651 85.3271 96.4288 78.0487 93.7396C77.6543 93.5939 77.2099 92.9094 77.2092 92.4751C77.1879 78.8669 77.1097 65.2572 77.283 51.6509C77.3869 43.4937 84.4934 36.764 92.6702 36.6507C101.553 36.5276 108.546 42.6557 109.223 51.0392C110.151 62.5396 98.7318 70.928 87.9262 66.9416C87.6159 66.8272 87.2944 66.7428 86.8145 66.5935C86.8145 69.9625 86.7598 73.2097 86.8888 76.4496C86.9037 76.8235 87.9027 77.3653 88.5102 77.4764C93.7898 78.4415 98.9241 77.9349 103.881 75.8056C113.697 71.5891 120.185 61.2164 119.501 50.7944C118.695 38.4982 109.756 28.6464 97.5135 26.5608C84.0109 24.2606 70.6832 32.9168 67.5233 46.1207C67.0689 48.0193 66.833 50.0145 66.8217 51.9668C66.7569 63.2088 66.7901 74.4514 66.7901 85.6938C66.7901 86.2343 66.7901 86.7749 66.7901 87.6993C65.5773 86.7056 64.5375 85.9406 63.5967 85.0692C55.6233 77.6838 50.6965 68.6688 49.5315 57.8361C47.2717 36.8242 58.8611 18.2439 78.9203 11.2959C105.387 2.12852 132.888 19.1875 137.077 45.6564C140.889 69.7337 124.618 92.1545 100.611 95.9203Z" fill="#3497E1"/>
<path d="M114.644 122.379C114.249 123.239 113.96 124.03 113.552 124.755C113.337 125.137 112.915 125.651 112.583 125.653C112.258 125.655 111.804 125.141 111.624 124.753C110.26 121.809 108.953 118.839 107.622 115.88C107.349 115.273 107.05 114.677 106.61 113.755C106.03 117.366 105.504 120.598 104.996 123.833C104.784 125.182 102.607 126.182 101.6 125.304C101.347 125.083 101.389 124.399 101.463 123.955C102.383 118.471 103.335 112.992 104.276 107.512C104.351 107.076 104.333 106.603 104.5 106.208C104.701 105.732 105.055 105.32 105.343 104.88C105.803 105.216 106.476 105.453 106.689 105.905C108.071 108.84 109.352 111.822 110.669 114.787C111.266 116.131 111.87 117.471 112.575 119.045C114.071 115.723 115.482 112.587 116.895 109.452C117.46 108.198 117.964 106.91 118.633 105.714C118.855 105.315 119.48 105.032 119.966 104.945C120.139 104.914 120.596 105.592 120.667 105.992C121.751 112.095 122.772 118.21 123.865 124.312C124.031 125.235 123.751 125.469 122.912 125.438C120.331 125.345 120.497 125.945 120.09 123.119C119.655 120.1 119.126 117.096 118.585 113.75C117.207 116.778 115.954 119.53 114.644 122.379Z" fill="white"/>
<path d="M15.356 117.77C13.672 117.916 12.1076 118.04 10.4304 118.173C10.4304 120.521 10.4304 122.868 10.4304 125.434C9.45536 125.434 8.5796 125.503 7.72645 125.395C7.43525 125.358 6.97542 124.877 6.97353 124.596C6.93053 118.206 6.94044 111.816 6.94044 105.023C9.9771 105.193 12.9492 105.05 15.7836 105.607C18.4534 106.13 20.107 108.8 20.1386 111.442C20.1729 114.308 18.5395 116.517 15.356 117.77ZM10.4452 112.857C10.4452 113.384 10.4452 113.91 10.4452 114.626C12.4795 114.522 14.5263 115.209 15.9464 113.256C16.7025 112.216 16.82 111.071 16.0398 109.976C14.5858 107.934 12.4873 108.71 10.4452 108.571C10.4452 110.04 10.4452 111.305 10.4452 112.857Z" fill="white"/>
<path d="M147.015 119.587C146.786 119.312 146.635 119.123 146.215 118.594C146.215 120.726 146.155 122.513 146.234 124.294C146.297 125.719 145.336 125.441 144.545 125.423C143.735 125.405 142.696 125.804 142.707 124.274C142.75 118.062 142.728 111.849 142.735 105.637C142.735 105.495 142.797 105.353 142.857 105.099C143.9 105.099 144.957 105.099 146.179 105.099C146.179 108.987 146.179 112.888 146.179 117.192C147.863 115.571 149.372 114.317 150.636 112.852C151.991 111.28 153.563 111.679 155.507 111.807C153.332 113.829 151.387 115.637 149.441 117.446C151.583 120.23 153.402 122.595 155.244 124.989C153.276 125.933 151.422 125.537 150.344 124.074C149.263 122.605 148.177 121.139 147.015 119.587Z" fill="white"/>
<path d="M125.725 116.286C127.72 111.877 131.755 110.471 135.702 112.712C136.375 111.81 138.275 111.249 139.13 111.823C139.447 112.037 139.659 112.629 139.663 113.051C139.704 116.743 139.659 120.435 139.701 124.127C139.717 125.495 138.859 125.447 137.924 125.439C137.009 125.432 136.096 125.54 136.14 124.147C136.197 122.327 136.193 120.504 136.145 118.684C136.084 116.328 134.235 114.752 131.928 115.019C130.131 115.227 128.703 116.779 128.729 118.496C128.757 120.404 130.35 122.221 132.135 122.381C134.392 122.584 134.392 122.584 135.011 125.099C132.525 126.044 130.18 125.79 128.093 124.161C125.529 122.16 124.802 119.505 125.725 116.286Z" fill="white"/>
<path d="M68.5243 113.024C70.2762 114.476 70.9037 116.332 71.0894 118.419C71.1931 119.584 70.895 120.1 69.58 120.055C66.8658 119.962 64.1458 120.035 61.4282 120.046C61.3423 120.046 61.2567 120.121 61.1714 120.162C62.0309 123.082 65.649 123.609 68.9782 121.192C69.5329 121.666 70.1158 122.164 70.6909 122.656C68.8525 125.7 64.0714 126.6 60.8184 124.573C57.5131 122.513 56.5083 118.141 58.5869 114.865C60.7284 111.489 64.8539 110.694 68.5243 113.024ZM67.6738 117.08C67.362 115.568 66.2067 114.61 64.594 114.527C62.9985 114.445 61.8162 115.332 61.2452 117.128C63.3352 117.128 65.3912 117.128 67.6738 117.08Z" fill="white"/>
<path d="M168.673 114.071C169.215 115.58 169.759 116.988 170.137 118.439C170.43 119.567 169.987 120.104 168.67 120.056C165.867 119.956 163.059 120.026 160.216 120.026C161.114 123.063 164.662 123.584 168.088 121.199C168.638 121.671 169.218 122.169 169.785 122.655C168.595 124.864 165.411 126.068 162.369 125.524C159.447 125.001 157.05 122.543 156.663 119.67C156.246 116.58 157.774 113.668 160.514 112.332C163.236 111.005 166.296 111.632 168.673 114.071ZM160.636 117.127C162.696 117.127 164.757 117.127 166.849 117.127C166.284 115.379 164.947 114.425 163.318 114.527C161.786 114.622 160.726 115.554 160.636 117.127Z" fill="white"/>
<path d="M30.8303 118.924C30.5007 114.375 34.7994 110.707 39.0728 111.807C42.4001 112.664 44.8542 116.038 44.4029 119.313C43.863 123.23 40.9151 125.684 36.9295 125.534C33.7337 125.414 31.0923 122.604 30.8303 118.924ZM35.0625 115.922C34.7977 116.387 34.4523 116.824 34.2817 117.32C33.469 119.687 34.9213 122.139 37.1616 122.248C38.8324 122.329 40.346 121.39 40.9033 119.927C41.4736 118.431 40.9962 116.794 39.6764 115.72C38.3423 114.634 36.9018 114.648 35.0625 115.922Z" fill="white"/>
<path d="M92.4483 119.878C91.3293 119.604 90.2807 119.466 89.3466 119.064C86.6819 117.916 86.2489 114.884 88.4087 112.941C90.8379 110.756 95.3747 111.194 97.2456 113.843C97.5486 114.272 97.7665 114.938 97.6559 115.409C97.5965 115.661 96.7348 115.899 96.27 115.845C95.487 115.754 94.729 115.434 93.9663 115.192C93.6872 115.104 93.4232 114.86 93.155 114.864C92.2909 114.877 91.0311 114.245 90.7526 115.525C90.4606 116.867 91.8887 116.583 92.6175 116.831C93.7267 117.21 94.9413 117.297 96.029 117.719C98.4644 118.662 99.1754 121.316 97.6458 123.409C95.2821 126.643 88.8836 126.019 87.2168 122.392C86.6763 121.216 86.861 120.891 88.1438 120.857C89.1592 120.831 90.0537 120.852 90.9806 121.653C91.6215 122.207 92.8908 122.125 93.8821 122.14C94.2199 122.145 94.8116 121.598 94.8381 121.267C94.8635 120.95 94.3644 120.486 93.9897 120.271C93.5803 120.035 93.0491 120.01 92.4483 119.878Z" fill="white"/>
<path d="M73.7324 121.587C74.5234 120.669 76.4674 120.51 77.248 121.313C78.1896 122.28 79.2969 122.477 80.498 122.188C80.9367 122.083 81.2845 121.601 81.6737 121.291C81.3366 120.927 81.0622 120.37 80.6498 120.236C79.6238 119.903 78.527 119.794 77.4727 119.537C75.0679 118.952 73.845 117.692 73.8581 115.872C73.8721 113.941 75.2825 112.348 77.4882 111.772C80.102 111.089 82.9145 112.018 84.1846 114.048C84.4225 114.429 84.6316 115.053 84.4738 115.386C84.3338 115.68 83.6436 115.897 83.2353 115.845C82.3994 115.738 81.5971 115.395 80.7671 115.21C79.9646 115.032 79.1452 114.846 78.3325 114.842C78.037 114.841 77.5369 115.336 77.5031 115.646C77.473 115.921 77.9058 116.435 78.2257 116.527C79.5496 116.907 80.9214 117.119 82.2504 117.484C83.5927 117.853 84.7354 118.583 85.0799 120.021C85.448 121.558 85.0807 122.965 83.8543 124.052C81.318 126.3 75.0934 126.277 73.7324 121.587Z" fill="white"/>
<path d="M55.3217 114.961C54.7775 115.049 54.2853 115.149 53.8424 115.043C52.3697 114.691 51.2045 115.127 50.3298 116.313C49.3788 117.601 49.3559 119.423 50.2504 120.76C51.0819 122.002 52.282 122.412 53.7255 122.169C55.0055 121.955 56.3548 122.916 56.3454 124.184C56.343 124.505 55.83 124.985 55.4558 125.112C53.1788 125.891 50.973 125.783 49.0315 124.208C46.9076 122.484 45.9963 120.199 46.4016 117.52C47.0432 113.279 50.8434 110.769 54.8164 111.842C56.603 112.325 56.6766 112.494 55.8036 114.093C55.6622 114.352 55.5317 114.617 55.3217 114.961Z" fill="white"/>
<path d="M178.606 114.5C176.891 114.744 176.208 115.504 176.187 117.177C176.158 119.544 176.161 121.912 176.19 124.278C176.2 125.073 175.937 125.6 175.1 125.414C174.31 125.237 172.871 126.139 172.822 124.647C172.681 120.424 172.772 116.192 172.772 111.843C173.894 111.911 175.153 111.127 175.315 112.861C176.209 112.415 177.062 111.756 178.005 111.585C178.926 111.419 179.937 111.753 180.924 112.073C180.164 113.017 180.531 114.777 178.606 114.5Z" fill="white"/>
<path d="M29.7411 113.805C29.3015 114.115 28.9228 114.49 28.5326 114.503C26.6869 114.561 25.8209 115.316 25.7883 117.168C25.7475 119.479 25.7036 121.795 25.8057 124.103C25.8666 125.481 25.1078 125.463 24.1418 125.45C23.1754 125.437 22.3015 125.596 22.3329 124.09C22.4167 120.065 22.3614 116.038 22.3614 111.9C23.1624 111.9 23.8263 111.9 24.6101 111.9C24.7106 112.192 24.8483 112.594 24.9395 112.86C25.8274 112.417 26.6912 111.752 27.6446 111.579C28.5583 111.414 29.5651 111.76 30.7724 111.911C30.3025 112.774 30.0496 113.239 29.7411 113.805Z" fill="white"/>
</svg>
