<svg version="1.1" id="Layer_1" xmlns="http://www.w3.org/2000/svg" xmlns:xlink="http://www.w3.org/1999/xlink" x="0px" y="0px"
	 width="100%" viewBox="0 0 992 992" enable-background="new 0 0 992 992" xml:space="preserve">
<path fill="#000000" opacity="1.000000" stroke="none" 
	d="
M121.816193,555.718933 
	C133.857910,551.616150 133.841553,551.619446 136.281143,563.663208 
	C140.780899,585.877441 146.591339,607.730347 154.885544,628.849915 
	C156.600204,633.215942 156.385406,636.693970 153.346741,640.361511 
	C149.957642,644.451965 147.021317,648.917603 143.110199,654.287781 
	C147.887482,652.285217 151.697571,650.958435 155.244003,649.122437 
	C158.532181,647.420044 160.162689,648.055115 161.716385,651.465881 
	C167.100708,663.286133 172.550293,675.078308 178.697708,686.541199 
	C180.785248,690.433716 183.402588,691.882690 187.808746,691.857056 
	C216.139847,691.691956 244.476105,692.035217 272.802521,691.634827 
	C283.407288,691.484985 290.021454,696.459656 293.783386,705.419128 
	C300.033203,720.303772 305.579437,735.482727 311.526428,750.496399 
	C313.218628,754.768433 314.326508,759.317261 317.031952,763.513794 
	C320.613220,761.909241 321.933594,758.891541 322.994385,755.755798 
	C328.328766,739.987183 333.776459,724.254028 338.859344,708.404175 
	C342.622986,696.668091 346.349335,693.856506 358.729889,693.881897 
	C400.227692,693.966980 441.725769,693.925964 483.223694,693.967468 
	C485.710419,693.969971 488.246033,694.016357 490.673920,694.483582 
	C497.269806,695.753113 499.319366,698.380066 499.319214,705.078369 
	C499.317810,759.907776 499.303406,814.737183 499.339111,869.566589 
	C499.340393,871.559509 498.561371,873.886292 500.885223,875.662354 
	C503.590302,874.008972 502.628326,871.452087 502.630219,869.374573 
	C502.679047,815.710388 502.660431,762.046143 502.666260,708.381897 
	C502.667511,696.709656 505.498260,693.957764 517.489197,693.953552 
	C543.654663,693.944336 569.820129,693.964050 595.985596,693.955566 
	C612.317871,693.950256 628.650208,693.921753 644.982483,693.890808 
	C655.138733,693.871582 659.316040,697.022888 662.533325,706.750610 
	C667.915833,723.025085 673.419800,739.259521 678.890991,755.504639 
	C679.960266,758.679443 681.275513,761.705994 685.210144,763.683167 
	C687.707275,757.416077 690.175903,751.323242 692.566284,745.199890 
	C697.471191,732.635559 702.255981,720.023743 707.237122,707.489929 
	C711.924194,695.696167 717.844849,691.766907 730.367188,691.764832 
	C758.199280,691.760193 786.031982,691.662781 813.862854,691.842224 
	C818.458313,691.871826 821.206909,690.443542 823.372498,686.333008 
	C829.278381,675.122742 834.711426,663.690186 839.941101,652.164185 
	C841.703003,648.280884 843.536987,647.146118 847.483276,649.401184 
	C850.745972,651.265686 854.409119,652.429260 858.945129,654.347656 
	C854.727051,648.516357 851.222412,643.540222 847.568237,638.676453 
	C845.806885,636.331970 845.251404,633.974182 846.346008,631.215515 
	C856.205872,606.366455 862.454407,580.509460 867.769409,554.391846 
	C867.864807,553.923035 868.134827,553.489807 868.330933,553.021973 
	C870.627625,551.841919 872.600647,553.212280 874.555298,553.858765 
	C883.090820,556.681641 891.564514,559.690796 900.086182,562.556580 
	C906.565796,564.735718 906.567810,564.681519 905.062805,571.235535 
	C898.414978,600.184692 888.597656,628.128662 878.263977,655.911499 
	C877.653076,657.553833 876.412781,659.107117 877.157532,661.393799 
	C880.162537,661.571899 880.891846,659.213623 881.785278,657.204956 
	C888.565308,641.960815 893.636841,626.097168 898.632568,610.215027 
	C902.827820,596.877686 906.884094,583.495605 910.864441,570.092529 
	C911.853699,566.761414 913.591553,564.807373 917.030823,563.715820 
	C927.619934,560.355347 938.098450,556.646667 949.264893,552.854309 
	C949.749817,560.143188 948.201599,566.615112 947.153015,573.044861 
	C942.370300,602.370422 934.537659,630.864136 923.443604,658.466309 
	C921.556702,663.160950 919.338928,665.347168 913.804443,665.679077 
	C906.542114,666.114502 899.130554,665.538391 891.097656,667.583008 
	C899.006714,670.641235 906.190430,673.558105 913.479004,676.184021 
	C917.700134,677.704834 918.211182,679.894531 916.295227,683.793762 
	C905.573120,705.614624 895.028137,727.522583 884.425293,749.401978 
	C883.916931,750.450989 883.473755,751.533081 882.934082,752.565125 
	C879.767212,758.621460 877.494324,759.428955 871.391968,756.169617 
	C865.958191,753.267395 860.578796,750.231201 855.385010,746.924927 
	C852.674622,745.199463 850.838623,745.510925 849.040894,747.934204 
	C837.626587,763.320190 826.219055,778.711304 814.772644,794.073364 
	C813.114258,796.299072 813.266418,798.182495 814.987183,800.345520 
	C818.720032,805.037842 822.369385,809.803894 825.874268,814.668457 
	C829.983093,820.371277 829.926941,821.798950 824.925659,826.554260 
	C814.905090,836.081848 804.734985,845.452148 794.625061,854.885742 
	C786.951416,862.046082 779.305969,869.236938 771.588989,876.350220 
	C766.800537,880.764038 765.438293,880.729370 760.561096,876.611328 
	C754.549072,871.535034 749.639648,865.393372 744.317139,859.660828 
	C741.624695,856.760864 739.340393,855.872498 735.840210,858.364868 
	C723.899719,866.867615 711.842590,875.207153 699.789734,883.550964 
	C697.464111,885.160889 696.992798,886.803101 698.325928,889.431702 
	C701.187378,895.073914 703.832764,900.831421 706.398010,906.616516 
	C708.995972,912.475464 708.201050,915.006104 702.624634,917.355103 
	C678.234375,927.628662 653.944519,938.175964 628.645996,946.111938 
	C622.241211,948.121094 621.231018,947.493713 618.676636,941.019226 
	C616.109802,934.513306 613.362915,928.078308 610.815613,921.565063 
	C609.415894,917.986084 607.138428,917.022156 603.357788,917.714294 
	C585.205444,921.038208 567.024719,924.214050 548.822632,927.253906 
	C545.699158,927.775513 545.104797,929.478027 545.076721,932.059692 
	C544.998596,939.242065 545.851868,946.361023 546.698914,953.464111 
	C547.504395,960.218140 545.817322,962.731384 539.277954,962.743958 
	C513.629700,962.793213 487.981110,962.761230 462.333099,962.652710 
	C456.302826,962.627258 454.312805,960.015808 455.170197,954.037964 
	C456.187622,946.944824 456.865479,939.827942 456.951691,932.649841 
	C456.991547,929.329651 456.114929,927.720398 452.340179,927.116211 
	C434.608887,924.278015 416.908112,921.210571 399.278656,917.800049 
	C394.443298,916.864624 392.220612,918.269653 390.657043,922.634216 
	C388.299866,929.214294 385.568329,935.662476 382.917114,942.134399 
	C380.289001,948.549988 378.218597,949.317688 371.912292,946.726624 
	C349.423126,937.486633 326.539795,929.223572 304.265594,919.449036 
	C302.741852,918.780396 301.157379,918.246704 299.648895,917.547302 
	C294.103424,914.975952 293.082672,912.536316 295.548737,906.846741 
	C297.998810,901.194153 300.616760,895.608398 303.350800,890.087280 
	C304.734772,887.292542 304.762604,885.249146 301.919525,883.304688 
	C289.682190,874.935242 277.497711,866.487061 265.375519,857.951660 
	C262.575836,855.980286 260.631348,856.602356 258.507324,858.916077 
	C253.438965,864.437256 248.483246,870.096802 243.034225,875.224609 
	C236.524872,881.350220 235.505096,881.238159 228.984329,875.158630 
	C213.872437,861.069458 198.868652,846.864258 183.819702,832.707520 
	C181.150848,830.196960 178.442612,827.727234 175.812057,825.177246 
	C172.876175,822.331299 172.393631,819.375793 175.136337,815.948608 
	C179.090347,811.007812 182.727310,805.813782 186.666290,800.860413 
	C188.763428,798.223145 188.791992,795.972839 186.760742,793.269470 
	C175.550583,778.350098 164.418884,763.371582 153.306595,748.379028 
	C151.253586,745.609070 149.252090,745.138245 146.182465,747.126587 
	C141.296234,750.291504 136.157318,753.079956 131.039627,755.870544 
	C124.324036,759.532593 122.195724,758.922363 118.900040,752.109253 
	C109.905823,733.515869 101.050095,714.855591 92.097206,696.242126 
	C90.004982,691.892273 87.826233,687.579285 85.536156,683.330872 
	C83.700531,679.925476 84.354897,677.778320 88.095177,676.386414 
	C95.412903,673.662720 102.660545,670.750732 110.734047,667.606323 
	C102.055717,665.701965 93.948692,666.300842 85.988220,665.453979 
	C82.700127,665.104126 80.954330,664.024536 79.703621,660.988525 
	C66.828964,629.736389 58.016888,597.407166 53.626877,563.883789 
	C53.281593,561.247131 52.939648,558.609314 52.656639,555.965576 
	C52.589638,555.339661 52.767361,554.687622 52.826302,554.108582 
	C54.913593,552.973145 56.561974,554.199646 58.202148,554.741516 
	C66.898712,557.614563 75.498383,560.796631 84.257217,563.458313 
	C88.232788,564.666504 90.170433,566.869568 91.352699,570.783203 
	C99.389366,597.386414 107.004921,624.132507 117.150230,650.050232 
	C118.242416,652.840454 119.364182,655.622131 120.582558,658.358643 
	C121.323151,660.022156 122.135139,661.792664 124.615685,661.197937 
	C125.832069,659.252991 124.440163,657.689453 123.838333,656.077515 
	C113.585052,628.615479 103.940315,600.961731 97.199203,572.381897 
	C95.375984,564.652161 95.362198,564.655151 102.990799,562.070435 
	C109.139259,559.987122 115.287971,557.904602 121.816193,555.718933 
M246.503601,860.023804 
	C249.646011,856.805176 252.900070,853.686707 255.900696,850.340942 
	C259.167999,846.697754 262.622833,846.439026 266.500336,849.143799 
	C280.983765,859.246826 295.467529,869.349365 309.941528,879.465820 
	C313.283447,881.801636 314.216827,884.852173 312.469208,888.609985 
	C310.082123,893.742859 307.632294,898.847168 305.299713,904.004578 
	C302.442780,910.321350 302.402374,910.537964 308.778076,913.133606 
	C329.445801,921.547852 350.186096,929.783752 370.877777,938.139465 
	C374.211548,939.485596 376.324524,938.484558 377.593262,935.257507 
	C379.968719,929.215515 382.293549,923.152893 384.739563,917.139526 
	C387.919495,909.321899 389.253723,908.541382 397.569244,909.981812 
	C417.561798,913.445007 437.542511,916.976929 457.520874,920.521240 
	C464.206757,921.707336 465.296234,922.887878 464.971710,929.853882 
	C464.670074,936.328003 463.978607,942.790894 463.254150,949.235718 
	C462.802185,953.256653 464.053101,954.906189 468.363800,954.874878 
	C490.193359,954.716309 512.025085,954.728455 533.854980,954.859497 
	C537.914978,954.883850 539.135376,953.320435 538.748474,949.489136 
	C538.030396,942.377625 537.492493,935.246094 536.996460,928.114807 
	C536.691956,923.738770 538.808228,921.361877 543.215149,920.631470 
	C552.072205,919.163391 560.883606,917.423157 569.727234,915.871094 
	C581.192749,913.858826 592.660706,911.856873 604.147461,909.970947 
	C612.760925,908.556763 614.075195,909.328125 617.342834,917.370850 
	C619.660461,923.075317 621.889526,928.817261 624.061096,934.579041 
	C625.654419,938.806519 628.180725,939.416748 632.288696,937.736023 
	C651.246582,929.979004 670.301025,922.458008 689.315918,914.840027 
	C692.677246,913.493347 696.117004,912.276611 699.324768,909.636719 
	C696.275391,903.221375 693.186890,896.976929 690.324524,890.630615 
	C687.471008,884.303955 687.974182,882.385925 693.593628,878.390747 
	C705.679382,869.798035 717.789062,861.236511 729.995117,852.816162 
	C741.159912,845.114197 741.184631,845.239197 750.558899,854.891296 
	C755.630554,860.113281 760.064453,865.991272 766.276062,870.681763 
	C783.548706,854.523010 800.669128,838.500549 817.799622,822.488953 
	C819.807007,820.612610 819.503723,818.771729 817.940430,816.800476 
	C814.317810,812.232422 810.788879,807.589294 807.126526,803.053650 
	C803.923096,799.086182 804.024170,795.236084 807.027771,791.222290 
	C819.705261,774.281494 832.369080,757.330383 844.983948,740.343018 
	C847.879761,736.443481 851.283813,735.793335 855.416138,738.137695 
	C860.196228,740.849670 864.950500,743.609375 869.772461,746.244934 
	C875.697205,749.483215 875.755371,749.453064 878.636597,743.563721 
	C886.323364,727.851807 894.015747,712.142456 901.625366,696.393188 
	C903.992249,691.494568 906.101501,686.471375 908.446472,681.242615 
	C906.488892,680.317627 905.030701,679.572510 903.529419,678.927673 
	C886.233215,671.498352 868.673035,664.732361 851.134827,657.903503 
	C847.271729,656.399292 845.623779,657.149353 843.980347,660.851257 
	C838.438599,673.335022 832.802673,685.802673 826.060242,697.692322 
	C802.128906,739.893127 769.799622,774.481323 731.709534,804.404907 
	C670.489746,852.499207 600.785950,877.485657 523.792053,882.890625 
	C488.973969,885.334839 454.214966,882.910706 420.095825,874.845825 
	C373.364410,863.799866 329.136810,846.942017 289.791290,818.603943 
	C262.803284,799.166260 236.907455,778.497559 215.127899,753.231689 
	C191.583099,725.918030 172.685837,695.602234 158.670959,662.304993 
	C156.057449,656.095642 155.899429,656.032227 149.559219,658.518372 
	C133.745468,664.719482 117.955437,670.982483 102.206001,677.344788 
	C99.359932,678.494507 96.278687,679.365601 93.475327,681.889893 
	C103.898491,703.405701 114.285088,724.819092 124.637505,746.249084 
	C125.957840,748.982178 127.772797,748.680542 129.947739,747.451294 
	C135.457764,744.337158 141.009995,741.297546 146.511078,738.167847 
	C150.899704,735.671021 154.338593,736.600464 157.310272,740.624939 
	C169.977585,757.779907 182.703995,774.891296 195.445923,791.990906 
	C198.129089,795.591736 198.001144,799.057434 195.297699,802.505066 
	C192.008942,806.699158 188.843826,811.007507 185.312592,814.989197 
	C182.033539,818.686340 182.589188,821.357117 186.132843,824.585022 
	C199.433701,836.700745 212.476425,849.099487 225.736404,861.260742 
	C229.004349,864.257812 231.780884,869.636169 235.823059,869.496887 
	C240.164307,869.347290 242.709961,863.766357 246.503601,860.023804 
M451.289093,829.521484 
	C452.352875,841.109802 453.160309,852.729126 454.557251,864.277161 
	C455.792328,874.487488 457.679169,875.809082 467.998993,875.770508 
	C469.332245,875.765503 470.671417,875.674866 471.997650,875.768555 
	C475.992096,876.050476 477.718628,874.388000 477.701996,870.243164 
	C477.601532,845.244812 477.630585,820.245911 477.667816,795.247253 
	C477.672729,791.950012 476.355438,789.596191 473.698517,787.669556 
	C453.738068,773.195923 433.823975,758.658325 413.898407,744.136597 
	C412.090332,742.818848 410.306030,741.840759 407.918213,742.849731 
	C391.892487,749.621277 376.611877,757.650879 363.031830,768.688843 
	C357.169067,773.454163 354.805939,779.453613 354.496704,786.966492 
	C354.297119,791.814758 355.677307,792.926880 360.220856,792.898499 
	C387.551758,792.727478 414.885406,792.934448 442.215027,792.678284 
	C447.333740,792.630249 448.917114,794.580688 449.174438,799.229309 
	C449.716644,809.024963 450.549805,818.804626 451.289093,829.521484 
M549.556885,845.109497 
	C550.680359,829.686157 551.866760,814.266907 552.888123,798.836853 
	C553.185608,794.342041 554.935242,792.596130 559.721008,792.695435 
	C574.542297,793.002991 589.373962,792.810852 604.201599,792.812439 
	C616.696777,792.813782 629.192017,792.835754 641.687073,792.796570 
	C643.936340,792.789490 646.619141,793.305542 646.930176,789.783691 
	C647.619751,781.978516 646.483337,774.944946 639.930054,769.501648 
	C626.722168,758.530884 611.799316,750.581726 596.202637,743.669983 
	C592.675293,742.106812 590.120544,742.500305 587.078552,744.750366 
	C568.066040,758.812561 549.000366,772.805908 529.780212,786.581970 
	C525.791138,789.441101 524.266724,792.717346 524.296753,797.483215 
	C524.434204,819.307312 524.263000,841.133179 524.374634,862.957520 
	C524.449768,877.644165 522.145996,875.589661 536.933533,875.736633 
	C543.579895,875.802673 545.601501,874.324097 546.667908,867.763794 
	C547.839600,860.555969 548.518921,853.268066 549.556885,845.109497 
M727.047913,739.517273 
	C734.299805,734.877014 740.938232,729.242798 749.679626,727.182251 
	C766.818970,723.142151 783.877991,718.762390 800.990967,714.608643 
	C807.724060,712.974487 813.994080,706.273132 815.191772,698.914246 
	C814.243286,698.751343 813.288696,698.445007 812.333923,698.444092 
	C785.044434,698.417603 757.754639,698.346985 730.465637,698.466187 
	C722.177185,698.502380 716.380005,702.368225 713.326294,710.428955 
	C707.907959,724.731079 702.146057,738.902771 696.602600,753.158020 
	C695.780457,755.272095 694.818054,757.422180 695.023376,760.365295 
	C706.136108,754.125244 716.060913,746.657654 727.047913,739.517273 
M238.601318,723.751160 
	C254.726746,726.156067 268.319672,733.974487 281.112671,743.552551 
	C284.443237,746.046265 287.894257,748.389038 291.379974,750.663147 
	C296.216370,753.818481 301.137756,756.843506 306.132568,759.993530 
	C307.325104,757.485535 306.414307,755.661743 305.699646,753.838440 
	C300.414795,740.356018 295.082428,726.892029 289.831635,713.396362 
	C285.179993,701.440796 280.859039,698.406921 268.164551,698.414795 
	C243.685196,698.430054 219.205841,698.437866 194.726532,698.482239 
	C191.996368,698.487183 189.266602,698.709290 185.737839,698.866150 
	C189.654968,706.190613 192.689636,712.740479 200.944794,714.641724 
	C213.262955,717.478760 225.514297,720.605835 238.601318,723.751160 
M576.330444,700.868408 
	C563.658142,701.565857 550.866455,699.334717 538.149353,702.409058 
	C561.621887,708.931396 584.722778,716.154785 607.740112,723.719177 
	C631.204834,731.430542 651.135132,745.336365 672.201050,759.848145 
	C671.924866,757.301147 671.976501,756.460449 671.732117,755.717102 
	C666.381287,739.444153 661.052673,723.163391 655.579773,706.931335 
	C654.284668,703.090332 651.358398,701.303833 647.176636,701.088562 
	C623.880615,699.889160 600.584839,700.313171 576.330444,700.868408 
M463.582397,702.775024 
	C462.396790,699.449036 459.412567,700.525024 457.221191,700.522949 
	C442.908844,700.509460 428.596436,700.831177 414.283783,700.850708 
	C396.805542,700.874512 379.313232,700.255737 361.853455,700.785889 
	C350.298950,701.136719 348.445374,699.269226 344.177979,713.478394 
	C340.354218,726.210571 335.772583,738.714600 331.563782,751.332153 
	C330.812927,753.583069 329.568726,755.802063 330.360535,758.696838 
	C333.705750,757.530334 336.201385,755.565979 338.678009,753.699707 
	C360.066406,737.581970 383.897156,726.522644 409.365417,718.497498 
	C427.139099,712.896973 445.177399,708.306885 463.582397,702.775024 
M347.368622,755.905457 
	C340.000336,760.458801 332.847321,765.316650 326.068115,770.722107 
	C322.718323,773.393188 321.182159,776.635742 321.137268,781.049561 
	C321.021942,792.384766 321.434570,803.659668 323.427734,814.832581 
	C324.605377,821.433716 326.400024,827.828674 330.922302,833.063232 
	C334.028473,836.658691 338.049255,837.201233 342.312012,835.939331 
	C346.560455,834.681519 344.728058,830.926514 344.775879,828.291199 
	C344.993256,816.307678 345.274292,804.302917 344.795105,792.335327 
	C344.291687,779.764221 348.943451,770.139771 358.868835,762.619568 
	C367.667114,755.953430 377.074280,750.354309 386.867676,745.328003 
	C412.110474,732.372620 438.721191,722.786926 465.372620,713.286499 
	C466.867401,712.753601 469.279266,713.051697 469.325043,709.060974 
	C426.082428,718.054626 385.579590,732.888672 347.368622,755.905457 
M680.750854,792.425171 
	C680.600891,772.170288 683.556458,776.342163 665.832581,763.191162 
	C664.896790,762.496765 663.908203,761.872437 662.933105,761.232422 
	C625.000854,736.332336 583.310120,720.558899 539.299377,710.493591 
	C537.259094,710.026917 534.947571,708.690247 532.677734,710.084045 
	C532.581421,712.677673 534.607422,712.790955 536.036072,713.265808 
	C553.270691,718.994995 570.299072,725.287048 587.015686,732.375366 
	C606.049927,740.446472 624.764282,749.112671 641.593384,761.420776 
	C652.557678,769.439453 657.986389,779.538696 657.244812,793.408081 
	C656.578491,805.870300 657.314453,818.401489 657.084961,830.895935 
	C656.998718,835.587646 659.357544,836.677551 663.196716,836.549011 
	C666.895020,836.425171 669.973694,835.034912 672.114319,831.862976 
	C674.561951,828.236206 676.550476,824.349121 677.420044,820.081421 
	C679.212646,811.282959 680.639709,802.416931 680.750854,792.425171 
M494.401184,711.812256 
	C493.380920,706.885376 491.615143,705.937317 485.816406,706.378601 
	C481.680939,706.693176 482.189117,709.548218 482.188019,712.146606 
	C482.166016,764.969971 482.199707,817.793457 482.113251,870.616638 
	C482.106964,874.456543 483.295593,875.957275 487.267609,875.901123 
	C494.182861,875.803406 494.582123,875.570679 494.176239,868.587585 
	C494.070038,866.759705 494.088715,864.923218 494.088867,863.090698 
	C494.092438,818.099182 494.092102,773.107605 494.121521,728.116089 
	C494.124878,722.953491 494.299744,717.791016 494.401184,711.812256 
M519.782410,754.500000 
	C519.793030,740.350464 519.762451,726.200623 519.846863,712.051514 
	C519.865112,708.988892 519.199646,707.083557 515.639343,706.640930 
	C509.544464,705.883362 507.977234,707.044800 507.977417,713.483948 
	C507.978241,747.442566 508.022064,781.401245 508.030243,815.359863 
	C508.034637,833.670959 507.977112,851.982056 508.007874,870.293030 
	C508.011292,872.330627 507.405640,874.734985 510.344513,875.658691 
	C516.589233,877.621521 519.783264,875.370117 519.783813,868.862366 
	C519.786987,831.074890 519.783325,793.287476 519.782410,754.500000 
M278.938354,750.619629 
	C257.350494,733.308716 231.667404,727.023865 204.665314,722.369263 
	C205.741959,725.299194 207.799316,725.340698 209.387131,725.919922 
	C217.671371,728.942200 226.068298,731.667358 234.286179,734.856262 
	C241.700165,737.733032 249.819641,739.202637 256.188690,744.304810 
	C266.318787,752.420044 276.172485,760.879578 286.195282,769.130066 
	C289.288391,771.676270 290.544434,774.820984 290.339081,778.779053 
	C289.925415,786.751892 289.660736,794.732422 289.317841,802.709106 
	C289.220947,804.962646 289.547211,806.899536 291.623718,808.382568 
	C295.414917,811.090210 299.029694,814.043396 302.761292,816.836365 
	C305.652740,819.000427 308.902740,819.582275 312.142761,817.935486 
	C315.268463,816.346863 314.649292,813.180176 314.640350,810.382385 
	C314.637177,809.386414 314.512573,808.391052 314.446259,807.395203 
	C313.861145,798.608398 312.827606,789.820496 312.848755,781.035156 
	C312.863037,775.101562 310.600647,771.352539 305.821686,768.314697 
	C296.972748,762.689453 288.291473,756.800415 278.938354,750.619629 
M758.805481,731.374878 
	C752.551819,733.177246 746.442383,735.299927 740.943420,738.913208 
	C725.781982,748.875916 710.574219,758.768372 695.441345,768.774170 
	C692.202087,770.915955 689.335449,773.504211 689.343079,777.912842 
	C689.361755,788.733704 688.345154,799.490295 687.399719,810.254639 
	C687.154785,813.042603 686.719299,816.231201 689.744385,817.878479 
	C692.947693,819.622742 696.254150,818.988831 699.142273,816.888000 
	C702.641846,814.342590 705.929199,811.500366 709.476074,809.027100 
	C711.942078,807.307678 712.656006,805.184265 712.761719,802.269714 
	C713.010437,795.411316 712.175537,788.625061 711.601501,781.843933 
	C711.035095,775.153259 713.339600,770.422729 718.646545,766.445129 
	C725.700073,761.158386 732.639099,755.660095 739.158508,749.736633 
	C745.207886,744.240295 751.914001,740.306824 759.614990,737.691650 
	C770.800476,733.893188 781.876038,729.769958 792.980591,725.735901 
	C794.510193,725.180237 796.587219,725.207275 797.256531,722.259216 
	C784.177490,724.561218 771.830750,727.647339 758.805481,731.374878 
M271.276855,764.249756 
	C254.207413,745.901245 231.384964,738.794739 207.094986,731.379700 
	C229.203903,759.625671 252.735992,784.316284 283.286072,802.634644 
	C283.800842,799.195679 284.467468,796.305664 284.631927,793.387390 
	C285.622070,775.818115 285.583527,775.815918 271.276855,764.249756 
M753.598633,746.025085 
	C741.600220,754.160767 731.292603,764.402588 719.808899,773.181763 
	C718.485901,774.193237 717.408386,775.610779 717.368530,777.385376 
	C717.183228,785.625061 716.555603,793.903992 718.957092,802.447449 
	C749.233093,784.273376 772.652893,759.464844 793.411377,731.386780 
	C780.360291,736.147766 767.309204,740.908752 753.598633,746.025085 
M384.658325,822.451660 
	C384.645050,818.478516 384.623535,814.505371 384.622040,810.532227 
	C384.621307,808.603271 383.953766,807.382385 381.768555,807.338074 
	C379.543335,807.292969 378.340149,808.120911 378.349121,810.487671 
	C378.374207,817.109436 378.359131,823.731445 378.330414,830.353210 
	C378.322021,832.290710 378.949463,833.546326 381.137878,833.567810 
	C383.333069,833.589355 384.602844,832.701721 384.609680,830.376526 
	C384.616516,828.058960 384.641113,825.741394 384.658325,822.451660 
M398.671600,819.506836 
	C398.663452,816.531067 398.644409,813.555298 398.651093,810.579529 
	C398.655365,808.676208 398.055573,807.392944 395.854034,807.339661 
	C393.649963,807.286499 392.387787,808.095581 392.393402,810.460266 
	C392.409119,817.072937 392.401917,823.685608 392.390839,830.298279 
	C392.387085,832.543884 393.438263,833.645203 395.725067,833.598389 
	C397.857086,833.554688 398.618866,832.346436 398.627289,830.411133 
	C398.641693,827.104797 398.656342,823.798401 398.671600,819.506836 
M420.754364,832.322754 
	C425.339142,834.367798 426.527618,833.794067 426.611145,829.197754 
	C426.719391,823.239624 426.633514,817.278076 426.644836,811.317993 
	C426.648895,809.179077 426.466705,807.306274 423.564606,807.314453 
	C420.810608,807.322205 420.295105,808.940369 420.319885,811.205566 
	C420.394135,817.990662 420.422760,824.776306 420.754364,832.322754 
M617.761780,808.499573 
	C616.831726,815.426086 617.559021,822.385010 617.365295,829.326294 
	C617.308655,831.355530 617.263184,833.478577 620.206482,833.568237 
	C623.244995,833.660889 623.674133,831.708252 623.664795,829.307190 
	C623.642273,823.507446 623.552917,817.704590 623.706665,811.908691 
	C623.817261,807.738647 622.159668,806.419067 617.761780,808.499573 
M575.561646,831.538879 
	C576.359009,833.911560 578.204407,833.865295 580.034180,833.248230 
	C581.820496,832.645874 581.649536,830.916809 581.655151,829.430908 
	C581.677185,823.608459 581.699463,817.785461 581.649902,811.963318 
	C581.632202,809.888245 582.186523,807.356018 578.732056,807.360718 
	C575.186890,807.365479 575.384827,809.911743 575.378479,812.255798 
	C575.361816,818.410278 575.406982,824.565002 575.561646,831.538879 
M363.427124,827.744324 
	C363.980133,829.969971 362.048798,833.725159 366.603790,833.544312 
	C370.847900,833.375854 369.580322,829.876282 369.650208,827.493958 
	C369.805573,822.199768 369.719177,816.897522 369.679962,811.598999 
	C369.665466,809.640869 369.970978,807.465881 366.916534,807.340027 
	C363.837830,807.213257 363.403198,809.058350 363.421173,811.490112 
	C363.459137,816.623047 363.427551,821.756409 363.427124,827.744324 
M609.630188,826.986328 
	C609.623535,821.505920 609.608521,816.025513 609.614746,810.545105 
	C609.616943,808.616150 608.997070,807.350525 606.776123,807.349548 
	C604.897766,807.348694 603.396729,807.754883 603.389832,809.989746 
	C603.368286,816.963379 603.382629,823.937378 603.426208,830.910889 
	C603.434204,832.193604 604.073853,833.163635 605.442749,833.355957 
	C606.666077,833.527954 607.768555,833.168091 608.514282,832.130798 
	C609.426575,830.861938 609.574768,829.367920 609.630188,826.986328 
M406.416718,827.238586 
	C406.850494,829.689392 404.995514,833.597839 409.716888,833.467163 
	C413.972137,833.349365 412.572052,829.724060 412.651611,827.380310 
	C412.831085,822.093750 412.713074,816.796570 412.687439,811.503906 
	C412.677673,809.491638 412.832031,807.331299 409.797333,807.396301 
	C407.073761,807.454651 406.593628,809.279602 406.565247,811.440613 
	C406.500153,816.399719 406.466461,821.359253 406.416718,827.238586 
M638.398743,814.108765 
	C638.449707,813.446655 638.571350,812.780945 638.538513,812.123047 
	C638.436829,810.087524 639.250000,807.536682 635.821777,807.335266 
	C632.307922,807.128784 632.277527,809.481445 632.286072,811.948608 
	C632.306824,817.927979 632.334290,823.907654 632.288940,829.886719 
	C632.271240,832.225952 632.870483,833.765808 635.633728,833.618225 
	C638.150391,833.484009 638.516663,831.972351 638.468933,829.890137 
	C638.354858,824.918823 638.348511,819.945068 638.398743,814.108765 
M589.311768,811.000366 
	C589.310181,817.307495 589.296204,823.614746 589.315430,829.921814 
	C589.320496,831.600525 589.254456,833.429565 591.667114,833.522461 
	C594.060913,833.614624 594.886047,832.072144 594.908875,830.017700 
	C594.980957,823.547424 595.002502,817.076111 594.978760,810.605469 
	C594.973022,809.033386 594.530884,807.610107 592.576416,807.406433 
	C590.545166,807.194763 589.390930,808.008118 589.311768,811.000366 
M564.555786,807.409302 
	C561.881531,807.653992 562.139771,809.719421 562.125000,811.489441 
	C562.075317,817.438599 562.055969,823.389160 562.135132,829.337646 
	C562.157532,831.020386 561.626953,833.377502 564.434509,833.394226 
	C566.940857,833.409241 567.758545,831.693054 567.750793,829.392639 
	C567.730225,823.278076 567.763672,817.163452 567.749451,811.048828 
	C567.745483,809.339478 567.631653,807.643005 564.555786,807.409302 
M439.959106,823.426880 
	C439.935852,819.124207 439.932800,814.821289 439.880066,810.518982 
	C439.856750,808.615662 439.102722,807.346924 436.927185,807.393738 
	C435.343384,807.427856 434.350525,808.130188 434.342743,809.738037 
	C434.305420,817.450806 434.325989,825.163818 434.325989,833.036682 
	C437.886414,833.439697 439.877777,832.788269 439.893372,829.359131 
	C439.900940,827.704285 439.934967,826.049500 439.959106,823.426880 
z"/>
<path fill="#000000" opacity="1.000000" stroke="none" 
	d="
M503.606628,462.431183 
	C497.214905,457.867371 491.014374,453.645569 485.044739,449.119324 
	C477.986816,443.767975 473.197968,437.282043 473.577423,427.639465 
	C473.831024,421.193909 468.846802,417.351074 461.425018,417.331757 
	C439.426758,417.274506 417.428253,417.320770 395.429840,417.309814 
	C375.859497,417.300079 362.814117,404.210419 362.817596,384.615143 
	C362.821594,362.283661 362.658630,339.950165 362.932953,317.622009 
	C363.012115,311.179077 360.473663,306.836853 355.344177,303.490112 
	C347.140503,298.137573 346.763519,291.308136 354.628540,285.654266 
	C368.697571,275.540527 382.970917,265.711945 397.621735,256.451355 
	C402.206085,253.553635 404.965515,254.725159 406.599121,259.849060 
	C407.432648,262.463379 407.274780,265.120056 407.276276,267.776154 
	C407.292084,296.104462 407.276733,324.432800 407.303619,352.761108 
	C407.313263,362.904694 412.861633,368.602814 422.967041,368.634949 
	C444.282684,368.702667 465.598969,368.590179 486.914490,368.674652 
	C491.314972,368.692078 494.072449,366.837738 495.924530,362.936035 
	C498.016144,358.529663 499.333893,353.872101 500.384064,349.188232 
	C502.557251,339.495728 506.549347,330.561768 511.008026,321.791901 
	C514.770264,314.391876 521.018494,310.992279 529.177673,310.669098 
	C537.558899,310.337128 543.404724,314.179474 547.622131,321.216278 
	C552.503540,329.360931 552.122620,338.371735 551.009705,347.005188 
	C548.443237,366.915436 542.945862,385.974365 532.237183,403.330505 
	C527.533630,410.953918 521.359436,414.721710 512.502808,414.283661 
	C511.339569,414.226105 510.169952,414.311432 509.003754,414.296600 
	C507.001221,414.271118 505.315247,414.920593 504.577881,416.880188 
	C503.834259,418.856262 503.865143,420.986481 505.518646,422.465240 
	C509.991241,426.464996 514.549194,430.458801 520.265564,432.586731 
	C526.746155,434.999146 532.355225,432.749969 535.409485,425.951355 
	C541.004089,413.498169 546.138367,400.838257 551.471863,388.267609 
	C552.772461,385.202271 554.022339,382.111969 555.433533,379.097809 
	C558.126282,373.346588 562.012634,371.298340 568.325745,372.508606 
	C589.311218,376.531525 610.527222,374.411255 631.640442,374.953003 
	C639.620728,375.157776 647.630859,375.312775 655.403931,372.766327 
	C660.363953,371.141449 664.952698,368.913635 669.112793,365.746887 
	C672.224609,363.378113 672.524963,360.897949 669.501831,358.373840 
	C657.546997,348.392181 629.000427,337.569580 613.805542,349.595032 
	C611.224915,351.637329 609.185974,350.342316 607.720398,347.741119 
	C606.497009,345.569763 606.270325,343.156860 606.861450,340.939911 
	C609.528625,330.936432 612.653076,321.109772 619.411316,312.906342 
	C628.062683,302.404999 639.729126,301.033783 652.092163,302.293610 
	C665.470520,303.656891 677.831665,308.988007 690.511292,312.964966 
	C705.301941,317.603973 719.957825,322.453430 735.686584,322.881561 
	C741.545288,323.041077 743.264282,325.269897 743.298462,331.122559 
	C743.355774,340.954803 743.250183,350.788116 743.325195,360.620117 
	C743.359192,365.080048 741.649170,367.451538 736.878784,367.472717 
	C722.378723,367.537170 710.862244,373.213165 701.175537,384.359375 
	C691.687622,395.276978 680.539673,404.687531 668.675293,413.121643 
	C663.608887,416.723206 658.131653,418.393921 651.856873,418.364990 
	C623.526184,418.234497 595.194336,418.376862 566.863342,418.289520 
	C557.034485,418.259247 549.888855,422.203827 545.718018,431.251801 
	C542.633118,437.943878 543.164185,440.689087 548.685791,445.731873 
	C554.339233,450.895081 554.469177,451.875488 550.149841,458.188965 
	C545.823242,464.513031 541.543945,470.872070 537.087463,477.103851 
	C533.645081,481.917511 531.682007,482.277252 526.714600,478.853912 
	C519.033020,473.560089 511.497437,468.054382 503.606628,462.431183 
M527.738342,363.200745 
	C530.119873,357.178314 532.611694,351.185425 532.878967,344.580414 
	C533.065125,339.980377 532.311035,335.863739 527.235718,334.116028 
	C523.365356,332.783234 518.825989,334.874084 516.043091,339.500916 
	C512.684082,345.085571 510.239166,351.149658 508.589355,357.395996 
	C507.388916,361.941040 507.425293,366.752075 512.268799,369.839722 
	C518.068054,373.536591 523.449463,371.440582 527.738342,363.200745 
z"/>
<path fill="#000000" opacity="1.000000" stroke="none" 
	d="
M287.404663,326.410583 
	C280.978271,325.518951 276.029266,327.773071 271.213806,331.176788 
	C263.212952,336.831879 256.861450,333.878540 256.151306,324.072876 
	C255.146225,310.194855 258.075562,297.289886 266.775726,286.025879 
	C276.901093,272.916718 293.341827,269.582062 307.768585,277.811157 
	C320.519073,285.084106 326.825897,297.121368 330.951813,310.371094 
	C338.529694,334.706268 339.109131,359.790558 337.754486,384.989624 
	C337.397614,391.627869 336.525452,398.215210 335.273804,404.757721 
	C333.771149,412.612274 329.713654,417.964081 321.808319,420.483887 
	C308.512146,424.722046 294.932587,424.603394 281.275848,423.771851 
	C276.294922,423.468506 271.391510,422.561798 266.535370,421.344177 
	C252.183762,417.745605 241.330353,403.066925 242.578140,390.212006 
	C243.476044,380.961395 243.295197,371.608215 243.666916,362.303650 
	C243.907059,356.292542 248.734543,353.667175 254.138382,356.663330 
	C255.554565,357.448517 256.733551,358.722839 257.894318,359.898163 
	C273.664001,375.865143 292.832153,377.303406 313.355621,372.868073 
	C314.629517,372.592804 315.856689,371.941833 317.010193,371.295441 
	C323.201172,367.826111 324.384949,363.907867 320.187836,358.282440 
	C313.920868,349.882721 307.257172,341.776154 300.668549,333.620575 
	C297.380188,329.550110 292.785553,327.623566 287.404663,326.410583 
z"/>
<path fill="#000000" opacity="1.000000" stroke="none" 
	d="
M452.633789,618.115784 
	C445.180786,615.700134 442.213104,612.062805 441.795746,604.557129 
	C441.324524,596.082336 441.330688,587.579224 440.775574,579.111633 
	C440.483398,574.655151 441.911133,571.838379 446.115479,570.177063 
	C448.987030,569.042419 451.553101,567.095764 454.617645,566.846863 
	C456.501617,569.016602 456.035583,571.268616 456.050964,573.367310 
	C456.103516,580.530396 456.058014,587.694275 456.037079,594.857849 
	C456.029053,597.591980 456.725525,600.244263 459.804993,600.414246 
	C466.767181,600.798523 473.768372,601.233276 480.715759,600.122314 
	C481.818604,599.945984 483.026459,599.639404 484.096252,598.016724 
	C482.567169,593.601562 478.628418,590.682434 475.360657,587.315674 
	C467.861908,579.589722 470.757507,567.887817 481.035339,565.046997 
	C490.133270,562.532349 499.283478,560.206787 508.386963,557.804016 
	C511.145996,567.336975 508.245178,572.845642 499.782593,575.238220 
	C496.456299,576.178650 492.937897,576.593994 489.967529,578.494263 
	C489.423523,580.826111 491.095856,582.051025 492.268341,583.269653 
	C496.653778,587.827698 501.071075,592.373047 505.740356,596.633972 
	C509.042664,599.647522 513.170959,600.828674 517.727661,600.747437 
	C522.029480,600.670776 525.042664,598.974670 526.788513,594.992371 
	C527.506348,593.354919 527.874512,591.452454 529.644653,590.372742 
	C533.041626,590.744934 533.331665,593.803223 534.564148,596.019653 
	C535.462708,597.635376 536.312317,599.503662 538.456482,599.448364 
	C540.603027,599.393005 541.381958,597.511597 542.131836,595.812744 
	C542.602173,594.747314 543.036743,593.666077 543.504761,592.599548 
	C544.086670,591.273438 545.017883,590.372925 546.556335,590.480286 
	C547.928711,590.576111 548.472961,591.688538 548.952576,592.759766 
	C549.359253,593.668091 549.625488,594.638611 550.015747,595.555298 
	C550.699951,597.162598 551.690979,598.472839 553.614380,598.595398 
	C555.591187,598.721497 556.580933,597.392700 557.441589,595.888000 
	C561.811401,588.247620 561.814514,588.249390 566.265259,595.890564 
	C568.762146,600.177246 579.833496,602.879028 584.252319,600.289490 
	C585.425903,599.601746 585.890686,598.537048 585.460693,597.330688 
	C585.079651,596.261597 584.450989,595.234314 583.745422,594.334595 
	C577.954651,586.949890 578.430481,583.239563 585.724426,577.420227 
	C587.613586,575.912964 588.795288,576.137878 590.293701,577.882019 
	C597.147461,585.859802 597.673218,604.991821 591.223511,613.251465 
	C589.278076,615.742859 586.745239,617.539917 583.712585,617.773438 
	C577.157410,618.278198 570.426636,619.819946 564.208740,616.124084 
	C562.921936,615.359131 561.722473,615.348938 560.458679,616.111694 
	C559.890381,616.454773 559.287842,616.950073 558.678528,616.984741 
	C550.077698,617.474121 541.445312,618.453796 532.917236,616.513916 
	C531.486877,616.188599 530.319885,615.238892 528.748108,616.109497 
	C523.171204,619.198181 517.083435,618.285339 511.124969,618.169189 
	C508.167145,618.111572 505.765076,616.647278 503.605499,614.652771 
	C501.797791,612.983276 500.481201,610.745239 497.384094,609.348572 
	C489.286316,620.409607 477.118225,618.187805 465.560791,618.257019 
	C461.396515,618.281982 457.231628,618.207153 452.633789,618.115784 
z"/>
<path fill="#000000" opacity="1.000000" stroke="none" 
	d="
M243.283676,234.675262 
	C241.614624,236.043228 240.061111,236.551773 238.321625,236.136536 
	C226.029282,233.202042 213.741379,230.248840 201.458679,227.274292 
	C201.016022,227.167099 200.642136,226.775833 199.385284,225.974304 
	C214.812897,212.402740 231.111633,200.513000 247.535599,188.309128 
	C242.570190,177.631088 236.196609,167.902542 231.635635,156.708267 
	C233.165955,156.708267 233.999451,156.546310 234.746323,156.732315 
	C248.142700,160.068619 261.516998,163.494400 274.924927,166.783188 
	C278.280914,167.606369 280.424408,169.334015 281.744507,172.618439 
	C284.351471,179.104645 287.191772,185.503922 290.149597,191.839218 
	C291.507660,194.747971 291.058075,196.638672 288.515747,198.681351 
	C278.263947,206.918228 267.262878,214.186127 257.398560,222.925079 
	C252.915359,226.896805 248.199234,230.605652 243.283676,234.675262 
z"/>
<path fill="#000000" opacity="1.000000" stroke="none" 
	d="
M759.686096,192.314392 
	C774.451904,203.011963 788.649536,213.850113 802.950500,226.223419 
	C793.802612,229.501022 785.307007,230.824936 777.082703,233.102386 
	C776.604553,233.234802 776.053223,233.169418 775.614624,233.368942 
	C764.580017,238.388367 756.317322,234.245102 748.292236,226.298676 
	C738.598938,216.700333 727.250610,208.983383 716.271179,200.883011 
	C710.115906,196.341782 710.194641,196.146637 713.150208,189.142136 
	C715.541809,183.474197 718.162109,177.901794 720.501465,172.213196 
	C721.614929,169.505692 723.430786,167.793411 726.175659,167.094284 
	C740.018005,163.568542 753.870178,160.081177 767.728271,156.617813 
	C768.310547,156.472305 768.985901,156.699722 770.337952,156.814560 
	C765.859863,167.782486 759.660828,177.416092 754.763977,187.662796 
	C755.587952,190.002197 757.818054,190.717789 759.686096,192.314392 
z"/>
<path fill="#000000" opacity="1.000000" stroke="none" 
	d="
M116.316193,375.050293 
	C113.710480,374.881866 111.541985,374.839630 108.801125,373.367828 
	C110.774330,367.770447 112.696381,362.041290 114.807190,356.382568 
	C121.032532,339.693390 127.792274,323.243195 136.180206,307.485229 
	C138.190430,303.708710 140.650192,302.326996 144.886337,302.709900 
	C157.926331,303.888702 170.994156,304.759583 183.841019,305.734161 
	C184.672638,308.226868 183.210876,309.403381 182.387009,310.754425 
	C170.405609,330.402039 159.556198,350.607727 152.199753,372.504974 
	C151.139267,375.661682 149.231018,376.456329 146.195023,376.303070 
	C136.393051,375.808136 126.583366,375.466095 116.316193,375.050293 
z"/>
<path fill="#000000" opacity="1.000000" stroke="none" 
	d="
M819.486450,310.543945 
	C818.679626,309.102997 817.607178,308.138367 817.940430,306.299988 
	C822.750549,304.791992 827.860779,304.990906 832.919189,304.663910 
	C841.538635,304.106720 850.149963,303.415680 858.760010,302.722839 
	C861.302612,302.518250 863.179749,303.136200 864.536438,305.556274 
	C876.377258,326.679016 884.934204,349.176910 892.548340,372.073883 
	C892.693359,372.509979 892.566467,373.036530 892.566467,373.561401 
	C890.413391,374.821808 888.037598,374.854309 885.763672,374.970520 
	C875.969604,375.470947 866.158936,375.682739 856.374268,376.311035 
	C852.531677,376.557800 850.770325,375.135773 849.550415,371.575562 
	C842.182068,350.071533 831.624390,330.110291 819.486450,310.543945 
z"/>
<path fill="#000000" opacity="1.000000" stroke="none" 
	d="
M355.099854,603.810730 
	C364.513824,599.771606 374.121033,600.725159 383.542480,600.864075 
	C388.761444,600.941040 391.379578,599.527161 392.508331,594.181458 
	C393.666473,588.696411 395.170532,583.198303 397.820831,578.122498 
	C399.255798,575.374390 401.141571,574.587891 403.908447,575.963501 
	C411.670044,579.822327 419.427094,583.665710 425.310150,590.347656 
	C430.702942,596.472839 431.840118,603.281006 428.646271,610.724915 
	C425.569763,617.895325 419.903351,620.353699 412.846130,617.037415 
	C409.105316,615.279602 406.206421,615.264893 402.198792,616.564453 
	C393.544312,619.371094 384.591553,619.641174 375.946320,615.662292 
	C368.973450,612.453125 361.832916,611.914429 354.611298,614.111023 
	C354.584625,614.640808 354.557953,615.170532 354.531250,615.700317 
	C357.592987,615.700317 360.665222,615.539001 363.713989,615.737671 
	C368.436005,616.045410 373.288910,616.531616 375.090759,622.004639 
	C376.822632,627.265015 374.162781,633.463135 369.081848,636.666016 
	C366.381378,638.368469 363.432556,639.543518 360.328522,640.201294 
	C350.937164,642.191711 341.368073,641.873230 331.988617,640.911865 
	C321.346313,639.821045 315.667145,632.399841 315.669189,621.680908 
	C315.670288,615.926941 316.687317,610.409424 319.858673,605.500610 
	C320.833221,603.992126 322.037079,602.306091 324.221710,602.766907 
	C326.775543,603.305603 326.155975,605.531006 326.202911,607.255615 
	C326.539520,619.618958 331.412415,624.474670 343.857117,624.651001 
	C349.350677,624.728882 354.846252,624.673767 360.340881,624.657288 
	C362.634857,624.650391 364.929443,624.590149 367.292206,623.022339 
	C365.531036,620.543701 363.207581,621.514038 361.291016,621.400391 
	C358.469727,621.233032 355.624023,621.471130 352.803558,621.296692 
	C346.666473,620.917297 344.069244,616.139648 346.989014,610.761658 
	C348.735199,607.545288 351.560913,605.544006 355.099854,603.810730 
M400.969879,597.785889 
	C401.546387,598.377869 402.046906,599.080139 402.714478,599.539978 
	C404.342468,600.661316 405.900024,600.227051 407.251770,598.987244 
	C408.310699,598.015991 408.193756,596.908325 407.242401,595.924011 
	C406.001495,594.640198 404.515442,593.956055 402.740295,594.678467 
	C401.640808,595.125854 400.669800,595.800232 400.969879,597.785889 
M417.860504,601.398743 
	C414.731537,601.222656 414.598328,603.971130 415.453217,605.216309 
	C416.795044,607.170898 419.227631,607.452576 421.273376,605.591003 
	C421.170563,603.469849 419.594055,602.719971 417.860504,601.398743 
z"/>
<path fill="#000000" opacity="1.000000" stroke="none" 
	d="
M54.899208,432.081299 
	C59.871433,407.690765 64.224953,383.580078 72.480980,359.370880 
	C79.320038,365.338226 85.136848,371.024017 91.585403,375.868927 
	C98.061584,380.734650 100.276016,385.761200 98.629990,394.316284 
	C94.368126,416.467102 91.526459,438.891052 88.107040,461.204315 
	C87.931953,462.346832 87.774353,463.533600 85.976318,464.552490 
	C81.362473,461.360046 76.479317,457.986511 71.601776,454.604858 
	C67.089684,451.476593 62.767963,448.017273 58.020180,445.302155 
	C53.731926,442.849884 52.668259,439.852234 54.385536,435.448151 
	C54.737717,434.544952 54.687145,433.484711 54.899208,432.081299 
z"/>
<path fill="#000000" opacity="1.000000" stroke="none" 
	d="
M914.283081,462.786560 
	C910.383423,438.309357 906.697754,414.159241 902.789917,390.045135 
	C902.058228,385.529938 902.768982,382.379974 906.610596,379.316010 
	C914.244019,373.227966 921.362976,366.494843 928.960327,359.793732 
	C931.492981,363.165588 931.995789,366.656647 932.930664,369.902252 
	C939.333618,392.130341 943.670105,414.827393 948.097351,437.502686 
	C948.627991,440.220734 948.052185,442.349823 945.657532,443.999756 
	C936.470215,450.329834 927.341370,456.744843 918.159851,463.083405 
	C917.011719,463.876038 915.684143,465.216156 914.283081,462.786560 
z"/>
<path fill="#000000" opacity="1.000000" stroke="none" 
	d="
M159.037537,272.065033 
	C168.254410,259.775238 178.114105,248.489639 188.163513,237.363037 
	C189.992767,235.337692 191.743896,233.653183 194.990479,234.518478 
	C206.718582,237.644302 218.506134,240.546875 230.268585,243.544174 
	C231.058838,243.745529 231.923355,243.892975 232.265274,245.095917 
	C232.152084,247.142319 230.268066,248.252106 228.980560,249.658356 
	C215.590424,264.283508 202.809555,279.416229 191.039978,295.376892 
	C188.901337,298.277069 186.673538,299.232758 183.034668,298.845367 
	C172.622498,297.736908 162.161026,297.087616 151.716660,296.287964 
	C149.103317,296.087891 146.426956,296.258453 143.599075,294.492004 
	C148.048782,286.591766 153.543839,279.541351 159.037537,272.065033 
z"/>
<path fill="#000000" opacity="1.000000" stroke="none" 
	d="
M800.885620,282.093109 
	C790.783630,269.324860 780.157776,257.456177 769.247314,245.197250 
	C773.944092,242.201279 778.765503,241.633179 783.304138,240.407166 
	C791.004211,238.327209 798.791626,236.572586 806.526550,234.618713 
	C808.767700,234.052612 810.694458,234.053909 812.428345,235.941071 
	C828.777100,253.735504 844.310242,272.173615 857.377686,292.569336 
	C857.717957,293.100433 857.824280,293.781433 858.289185,295.100464 
	C852.015991,296.974609 845.664490,296.314301 839.551208,297.104248 
	C832.146423,298.061066 824.630188,298.123108 817.185486,298.820923 
	C814.646912,299.058868 813.119385,298.138092 811.713013,296.257690 
	C808.224548,291.593262 804.645203,286.996826 800.885620,282.093109 
z"/>
<path fill="#000000" opacity="1.000000" stroke="none" 
	d="
M326.979736,99.008904 
	C326.688232,96.737198 326.396729,94.465492 325.971924,91.154922 
	C334.383759,94.536697 337.277496,101.944160 341.704865,107.746498 
	C346.446594,113.960846 348.675323,121.207909 348.479309,129.460983 
	C353.342621,128.777328 356.929260,126.613907 360.738495,125.094681 
	C364.549774,123.574638 368.013519,121.143913 372.218964,120.455269 
	C375.021210,124.461876 375.602722,127.713737 370.543213,130.263657 
	C366.203522,132.450775 364.091370,136.888031 361.153198,140.471390 
	C359.252045,142.789932 357.409027,145.157303 355.580750,147.534164 
	C346.483978,159.360092 339.003326,163.884369 322.285065,158.353683 
	C327.893219,167.340546 335.627136,169.586960 347.065918,165.226105 
	C350.135254,164.055954 352.172974,163.645447 353.832489,167.287598 
	C355.478516,170.900162 355.052185,172.523148 351.205902,174.485718 
	C337.414032,181.523041 324.634552,180.618118 312.423737,171.104935 
	C311.260773,170.198868 309.878754,169.573944 308.275452,168.627930 
	C306.645874,172.063858 306.628662,175.889786 304.544403,178.867447 
	C302.094025,182.368256 299.985840,186.780228 294.705566,185.824860 
	C291.448608,185.235550 288.088013,177.213531 288.969421,172.872849 
	C289.596436,169.784912 290.358093,166.640533 291.655090,163.792496 
	C293.491699,159.759491 292.606354,157.290710 288.622345,155.425079 
	C284.828796,153.648682 282.224884,150.778030 282.101196,146.156799 
	C284.684174,145.094131 286.107819,147.268677 287.950134,148.089432 
	C290.795319,149.356964 293.155884,151.794235 296.602814,151.598251 
	C298.220032,151.506302 298.795990,152.777924 299.599304,153.858017 
	C304.444366,160.372299 315.878662,167.895935 324.094177,169.899384 
	C323.795227,167.999176 322.446838,167.005051 321.348633,165.979980 
	C312.352692,157.583328 303.778717,148.760681 292.386108,143.271545 
	C282.690399,138.599991 282.179504,129.100159 290.699402,123.256927 
	C300.598450,116.467796 308.775238,107.539352 316.969788,98.752754 
	C321.301422,94.108147 322.279510,94.188408 326.682922,99.109772 
	C324.712982,106.614792 319.060577,110.761177 314.002899,115.221939 
	C307.008240,121.391075 301.083313,128.509125 294.100861,135.503738 
	C304.759949,142.495697 315.065521,148.968079 327.164429,151.470367 
	C336.145264,153.327789 345.073853,148.817871 348.148590,141.464340 
	C343.042633,141.962326 339.096558,144.986649 334.607147,146.417496 
	C332.713318,147.021088 330.391602,149.164368 329.201080,145.887650 
	C328.265594,143.312912 326.385468,140.448959 330.120514,137.972702 
	C333.709961,135.592957 337.116119,132.825577 340.193451,129.810684 
	C344.811646,125.286194 345.047516,122.755836 341.373199,117.554184 
	C336.859192,111.163712 332.271698,104.806419 326.979736,99.008904 
M297.362000,167.879089 
	C296.938385,169.756973 295.716217,171.547058 296.681702,173.620270 
	C300.982758,170.641098 302.110809,167.149216 300.015381,162.972961 
	C298.450165,163.991150 298.314423,165.774414 297.362000,167.879089 
z"/>
<path fill="#000000" opacity="1.000000" stroke="none" 
	d="
M117.662720,458.819214 
	C109.699165,460.694641 102.339226,463.374237 94.430611,464.521088 
	C92.532516,459.459991 94.254616,454.720337 94.849426,450.103821 
	C97.457680,429.859955 100.773621,409.720245 104.866112,389.717346 
	C105.288216,387.654236 105.574242,385.323547 108.638168,385.349365 
	C120.601768,385.450287 132.572556,384.517334 144.527878,385.612610 
	C144.985916,385.654572 145.419464,385.963776 145.782089,386.114258 
	C146.483368,387.448669 145.732941,388.493988 145.326080,389.535400 
	C137.884415,408.582642 134.568604,428.559418 132.536728,448.739532 
	C132.040573,453.667419 130.429886,455.961273 125.766556,456.702087 
	C123.155342,457.116852 120.620224,458.010651 117.662720,458.819214 
z"/>
<path fill="#000000" opacity="1.000000" stroke="none" 
	d="
M90.015038,524.717712 
	C89.310867,510.271149 90.328644,496.327026 90.690842,482.371643 
	C90.739967,480.478607 90.791725,478.551544 93.048660,477.956512 
	C104.884125,474.836121 116.734230,471.771240 128.181702,468.790588 
	C129.575500,470.062469 129.445816,471.094116 129.425583,472.072083 
	C128.985107,493.350830 128.972137,514.616333 131.409073,535.804565 
	C131.627350,537.702393 131.880997,539.539185 129.417206,540.183289 
	C117.236633,543.367676 105.056297,546.552979 92.559448,549.820679 
	C89.491150,541.418274 91.523468,533.107971 90.015038,524.717712 
z"/>
<path fill="#000000" opacity="1.000000" stroke="none" 
	d="
M610.130127,99.423355 
	C606.707581,109.625534 598.720032,113.102165 589.636414,107.710884 
	C583.722229,104.200706 578.863892,103.879562 573.167358,107.646324 
	C567.099670,111.658501 560.268738,111.450264 553.125549,109.466148 
	C552.603333,112.885948 553.955566,114.951027 556.526672,116.156685 
	C559.228027,117.423462 562.023926,118.570610 564.887939,119.385384 
	C567.754395,120.200836 568.490417,121.818886 568.051331,124.579491 
	C567.082275,130.671982 566.219910,131.386383 560.292969,129.498337 
	C551.935486,126.836037 543.802490,125.675293 535.794128,130.729889 
	C532.369019,132.891678 531.877075,135.093933 534.778870,137.805145 
	C537.447937,140.298874 540.197205,142.746552 543.146851,144.890182 
	C546.965881,147.665604 544.625244,150.610855 543.490967,153.294647 
	C542.001831,156.817947 539.419800,154.647766 537.697754,153.568161 
	C528.181824,147.602280 522.320801,138.638565 519.804810,128.043503 
	C516.737488,115.126755 513.491394,115.073929 502.393158,122.523933 
	C501.878540,122.869408 501.534546,123.469055 500.774536,124.332809 
	C503.778137,125.858986 506.561554,127.199089 509.272308,128.672867 
	C511.674500,129.978851 513.998352,131.472702 513.189270,134.821457 
	C512.383423,138.156799 510.023285,139.821777 506.770355,140.204193 
	C504.296875,140.494980 501.785217,140.447174 499.303711,140.686478 
	C494.670471,141.133286 492.585602,143.475494 493.106140,148.369278 
	C493.725952,154.196426 493.432953,160.028030 490.993408,165.522736 
	C490.537445,166.549805 490.216949,167.761520 488.549164,168.289124 
	C486.695435,165.188477 488.275238,161.574478 487.293823,158.389511 
	C484.344238,148.817444 486.175568,139.390259 489.895630,130.737564 
	C494.696045,119.572029 503.795258,112.250473 515.361633,108.372208 
	C519.200195,107.085136 521.883240,109.012650 522.880859,112.854279 
	C523.798462,116.387634 524.445740,119.993019 525.153503,123.578247 
	C525.514160,125.405037 525.995850,127.120949 527.575806,128.238785 
	C529.833496,128.213013 530.794067,126.495361 531.997498,125.186203 
	C535.008362,121.910713 538.535706,119.458778 542.959106,118.656990 
	C546.554749,118.005249 547.811340,116.150635 547.735168,112.454353 
	C547.476990,99.920258 544.722900,87.716415 543.248108,75.347496 
	C542.596741,69.884857 541.590698,64.513382 540.129578,59.215199 
	C539.867188,58.263607 539.722412,57.242176 539.742493,56.257465 
	C539.792053,53.832302 539.145081,50.372406 542.047668,49.859482 
	C545.467407,49.255180 545.169067,53.113766 545.770081,55.250996 
	C548.979187,66.662796 549.925537,78.457756 551.206909,90.177872 
	C552.357727,100.704002 560.367981,105.186081 570.145813,100.462212 
	C567.781982,98.785088 564.959717,99.951996 562.503479,99.216866 
	C562.017395,92.789902 565.135071,87.700737 570.867004,85.638474 
	C578.294678,82.966156 585.877319,82.980606 593.483887,84.670387 
	C599.409912,85.986847 599.909668,87.407570 597.206787,92.958397 
	C596.046997,95.340179 593.621704,96.334480 592.051758,98.306236 
	C593.000793,100.649307 595.251465,100.467339 597.035583,101.022728 
	C599.281189,101.721764 601.832825,102.453224 603.695007,100.666092 
	C605.811768,98.634781 603.513550,96.615753 602.716370,94.830589 
	C600.806335,90.553581 601.015991,86.873581 604.835876,83.367867 
	C610.447937,87.433922 610.673706,93.092926 610.130127,99.423355 
z"/>
<path fill="#000000" opacity="1.000000" stroke="none" 
	d="
M911.209839,540.739502 
	C910.768494,543.787903 910.353516,546.383484 909.925354,549.061218 
	C906.203186,549.859558 903.178345,548.100403 900.038086,547.330933 
	C891.326050,545.195923 882.669067,542.837097 873.983582,540.592957 
	C871.963745,540.070984 870.133301,539.638672 870.493713,536.779114 
	C873.247681,514.933350 872.832153,492.974060 872.756287,471.027405 
	C872.754700,470.565826 873.062988,470.103180 873.311157,469.402435 
	C877.007202,469.102020 880.359009,470.676880 883.821472,471.530670 
	C891.406494,473.401062 898.930603,475.531067 906.547302,477.255920 
	C910.122498,478.065521 911.219116,479.836578 911.412292,483.446655 
	C912.426453,502.404114 912.433594,521.343445 911.209839,540.739502 
z"/>
<path fill="#000000" opacity="1.000000" stroke="none" 
	d="
M902.532593,419.572296 
	C904.996765,434.670166 907.732300,449.302887 908.394958,465.079254 
	C899.923828,462.885498 892.395935,460.962921 884.882690,458.984741 
	C870.070618,455.084808 870.390442,455.034515 868.582825,439.783813 
	C866.604309,423.091370 863.282349,406.637329 857.222717,390.855499 
	C856.697144,389.486816 856.264282,388.082581 855.844788,386.859222 
	C856.933105,385.148804 858.403809,385.646332 859.636780,385.640961 
	C870.292725,385.594513 880.950256,385.702972 891.604309,385.555573 
	C894.783936,385.511597 896.617859,386.477936 897.183655,389.736603 
	C898.887329,399.548828 900.682617,409.345184 902.532593,419.572296 
z"/>
<path fill="#000000" opacity="1.000000" stroke="none" 
	d="
M50.675095,466.847046 
	C50.849232,462.092255 50.395359,457.727112 52.220882,453.711456 
	C53.666870,453.410339 54.565617,454.193634 55.512951,454.870575 
	C64.319252,461.163239 73.089287,467.507935 81.962524,473.704803 
	C84.432594,475.429871 85.146912,477.271240 84.908966,480.386047 
	C83.499817,498.832733 83.856880,517.304688 84.796844,535.768250 
	C85.039017,540.525208 85.278435,545.282288 85.567047,550.986450 
	C76.473236,547.580139 68.237328,544.590576 60.074310,541.413696 
	C49.443573,537.276367 50.494854,539.961182 49.600090,526.644653 
	C48.267410,506.810608 49.269386,487.074524 50.675095,466.847046 
z"/>
<path fill="#000000" opacity="1.000000" stroke="none" 
	d="
M949.528687,538.480347 
	C938.642212,542.625671 928.113892,546.591370 917.211975,550.697815 
	C916.119202,545.609009 916.661438,541.308472 916.972656,537.091736 
	C918.394897,517.819885 919.080139,498.561066 917.007324,479.293640 
	C916.840393,477.742157 916.835388,476.198273 918.219482,475.199860 
	C928.436584,467.829895 938.682129,460.499390 948.952515,453.132233 
	C950.998657,455.400726 950.975952,457.605957 951.124756,459.685608 
	C952.850220,483.796326 952.583984,507.938507 952.145203,532.080444 
	C952.104004,534.344727 952.374084,536.861572 949.528687,538.480347 
z"/>
<path fill="#000000" opacity="1.000000" stroke="none" 
	d="
M105.094398,366.879944 
	C104.247101,368.530487 104.546303,370.250336 103.245392,371.333679 
	C101.664398,371.949982 100.794174,370.714417 99.840164,369.888977 
	C93.039757,364.004822 86.322411,358.023499 79.464516,352.207642 
	C77.173599,350.264862 76.972412,348.386047 78.039825,345.665527 
	C88.058777,320.130035 101.444901,296.376190 116.087021,273.278564 
	C116.610435,272.452942 117.165916,271.561798 119.167206,271.355988 
	C123.711967,280.364349 128.476288,289.621338 133.033859,298.979034 
	C134.109283,301.187164 132.273315,303.116425 131.308624,304.991150 
	C121.087074,324.855103 112.062859,345.223541 105.094398,366.879944 
z"/>
<path fill="#000000" opacity="1.000000" stroke="none" 
	d="
M870.843384,294.866394 
	C874.999756,286.732300 879.006592,278.931335 882.921509,271.309265 
	C885.070007,271.683441 885.712891,272.907257 886.411194,274.021606 
	C900.572693,296.620819 913.690369,319.757660 923.527039,344.645416 
	C925.001953,348.377258 924.585754,350.640839 921.455261,353.174835 
	C914.990540,358.407745 908.840576,364.029327 902.554504,369.483307 
	C901.570435,370.337128 900.716248,371.420959 898.745117,371.620911 
	C896.218140,364.548828 893.731018,357.387421 891.104187,350.277679 
	C885.385193,334.798645 878.530823,319.815094 870.749084,305.278900 
	C868.815552,301.666992 868.184448,298.579803 870.843384,294.866394 
z"/>
<path fill="#000000" opacity="1.000000" stroke="none" 
	d="
M847.099426,219.912231 
	C858.763855,232.535110 869.079407,245.747238 878.215454,259.900299 
	C880.092041,262.807434 880.172119,265.051178 878.389832,268.049988 
	C873.990601,275.452271 869.965698,283.076935 865.959839,290.306274 
	C864.446777,290.575104 863.918030,289.965790 863.438110,289.253632 
	C849.839661,269.074310 834.361633,250.384521 818.026245,232.400909 
	C815.160950,229.246490 814.985474,226.847534 817.260071,223.318802 
	C821.468445,216.790207 825.198364,209.953247 829.574036,202.482452 
	C836.060242,208.111542 841.462830,213.879852 847.099426,219.912231 
z"/>
<path fill="#000000" opacity="1.000000" stroke="none" 
	d="
M140.088440,237.119904 
	C150.003174,224.985855 160.154602,213.561218 171.220215,203.426086 
	C173.353531,203.528641 173.877960,204.891281 174.525558,205.992233 
	C178.241379,212.309250 181.849930,218.689880 185.611526,224.979156 
	C186.866928,227.078140 187.132492,228.672302 185.298889,230.730560 
	C168.562271,249.517883 152.344559,268.727661 138.274811,289.648376 
	C138.030457,290.011688 137.484512,290.172211 136.439651,290.830109 
	C131.654846,282.220581 126.892578,273.735168 122.228279,265.196259 
	C121.149567,263.221466 122.736443,261.715179 123.675873,260.209625 
	C128.620026,252.286148 134.080429,244.725586 140.088440,237.119904 
z"/>
<path fill="#000000" opacity="1.000000" stroke="none" 
	d="
M467.786499,127.123520 
	C464.252075,128.498703 461.105072,127.844917 458.160492,126.715630 
	C455.506683,125.697861 454.026093,126.282730 452.316986,128.539017 
	C448.250946,133.906891 443.715637,133.751846 439.735016,128.400711 
	C437.738220,125.716423 436.144379,122.794739 434.968201,119.651871 
	C429.420288,104.827232 423.021484,90.365051 416.311798,76.038239 
	C415.035645,73.313278 413.924316,70.647003 415.199158,67.158112 
	C420.042114,70.406792 421.376984,75.534286 423.484528,80.054535 
	C427.008667,87.613121 427.338623,88.008537 433.991302,82.784111 
	C446.197754,73.198265 459.196472,64.786690 472.090454,56.208992 
	C473.578339,55.219208 474.890778,53.804401 476.867004,53.812496 
	C480.760315,58.868298 480.458160,61.848854 474.902863,65.089195 
	C464.088684,71.396950 453.628845,78.173012 444.047791,86.253838 
	C443.060486,87.086540 441.769043,87.647690 441.193604,89.534828 
	C455.019196,95.493652 468.607025,102.079041 483.121765,106.418137 
	C484.361511,106.788750 485.769226,106.703239 487.094208,106.665054 
	C494.078796,106.463753 495.261566,104.850174 492.534058,98.690582 
	C488.557831,89.710930 484.340057,80.838470 480.294220,71.889137 
	C479.616364,70.389717 479.022980,68.759003 478.861206,67.141869 
	C478.635712,64.887688 479.248383,62.578640 481.669189,61.849388 
	C484.196533,61.088024 484.602692,63.550735 485.250000,65.113556 
	C489.643829,75.721519 494.165436,86.285789 498.173096,97.040298 
	C499.959717,101.834763 501.306183,107.428825 497.471313,111.755531 
	C493.253204,116.514641 487.244934,115.786079 481.548462,114.867233 
	C479.450806,114.528885 477.494019,113.379829 474.488831,113.781723 
	C474.072968,118.814789 474.057373,124.490547 467.786499,127.123520 
M434.623444,97.565674 
	C433.539429,97.497566 431.670532,96.988518 432.414032,98.925316 
	C435.206329,106.199127 437.182129,113.884323 441.430664,120.472153 
	C443.854370,124.230309 448.048218,123.350212 450.069214,119.259323 
	C450.842285,117.694405 450.507263,115.522217 452.517181,114.615875 
	C461.836182,120.815781 464.140686,120.851387 469.847229,114.234398 
	C459.980682,105.137054 447.127289,102.449608 434.623444,97.565674 
z"/>
<path fill="#000000" opacity="1.000000" stroke="none" 
	d="
M595.964233,147.494949 
	C592.729370,151.958771 592.891968,157.192169 591.144775,161.829407 
	C589.499817,166.195343 588.268188,170.773819 584.237427,173.966797 
	C587.159790,164.401840 587.306030,154.350723 590.457581,144.944931 
	C591.917297,140.588425 595.674133,139.190063 600.928894,138.389282 
	C598.600586,138.213608 597.386902,138.122040 596.245544,138.035934 
	C596.095337,137.478226 595.843201,137.074753 595.954895,136.880096 
	C601.518372,127.188408 608.828979,119.508347 619.995178,116.423271 
	C627.293335,114.406891 632.113770,118.044228 632.284424,125.615005 
	C632.343872,128.252625 632.293884,130.892700 632.293884,134.927170 
	C639.183716,128.410034 645.051636,122.455765 653.140503,119.836945 
	C654.910217,122.703667 654.054077,125.261124 654.248901,127.686470 
	C654.597961,132.030975 658.597046,135.202393 662.890991,134.496017 
	C666.066711,133.973602 665.266052,131.944794 664.692505,129.979431 
	C662.337830,121.910179 658.249695,114.657852 654.071411,107.447006 
	C650.477783,101.245285 653.517639,95.628174 660.838745,95.798119 
	C676.362915,96.158478 691.586060,99.004227 706.711792,102.321426 
	C710.196899,103.085754 714.001160,102.984978 716.983521,105.404411 
	C714.875549,111.056671 713.312439,111.913239 707.565552,110.760765 
	C694.529175,108.146446 681.559631,105.114197 668.235352,104.263626 
	C666.619568,104.160484 664.913696,103.752808 663.251221,104.766487 
	C662.913025,107.813026 664.919312,110.020142 666.216187,112.445671 
	C668.739014,117.164391 671.120300,121.920807 671.627075,127.352264 
	C672.143982,132.893570 667.490173,140.199814 662.325317,142.058624 
	C654.501038,144.874512 649.011414,140.015457 649.078552,129.728989 
	C643.803406,130.622406 639.158997,133.163513 637.093811,137.522247 
	C634.728210,142.515182 638.841125,146.278717 642.653503,149.071869 
	C645.608276,151.236725 645.755920,153.296249 644.100159,156.256866 
	C642.881470,158.436050 641.514160,158.947830 639.228699,158.084579 
	C633.405273,155.884964 630.070129,151.641083 628.774231,145.691498 
	C627.885315,141.610489 627.762146,137.456284 627.613098,133.286758 
	C627.360535,126.218903 622.702148,123.220688 616.112732,125.739349 
	C613.942688,126.568832 611.863647,127.650848 609.789124,128.707901 
	C609.098694,129.059692 608.552185,129.693954 607.961975,130.180817 
	C608.900330,132.308624 610.909729,132.639755 612.318726,133.727463 
	C614.766846,135.617294 617.197571,137.667862 616.259338,141.135971 
	C615.347656,144.506088 612.799744,146.380249 609.283142,146.626678 
	C604.972839,146.928696 600.652710,147.091110 595.964233,147.494949 
z"/>
<path fill="#000000" opacity="1.000000" stroke="none" 
	d="
M187.715790,210.245941 
	C185.372421,206.579559 183.328369,203.142670 181.018768,199.894623 
	C179.381561,197.592178 179.445679,195.886887 181.512207,193.837982 
	C193.936646,181.519577 207.210205,170.219223 221.371323,159.944534 
	C224.950378,157.347702 227.295044,157.369385 229.342056,161.901764 
	C232.485260,168.861206 236.155273,175.584518 239.662720,182.376541 
	C240.675339,184.337418 241.115494,186.070572 239.062500,187.656097 
	C224.858856,198.625717 210.668732,209.612854 196.462585,220.579239 
	C196.221725,220.765152 195.835083,220.762207 195.233231,220.923096 
	C192.084717,218.074387 190.498093,213.941513 187.715790,210.245941 
z"/>
<path fill="#000000" opacity="1.000000" stroke="none" 
	d="
M789.420898,166.547058 
	C800.187012,174.963104 810.124817,183.776703 819.737671,192.978607 
	C822.381470,195.509354 822.717529,197.504593 820.551270,200.618759 
	C815.926758,207.267059 811.715088,214.202499 806.925171,221.656860 
	C801.008728,217.109222 795.526184,212.923325 790.074158,208.697968 
	C781.668945,202.183807 773.375366,195.520584 764.843079,189.178009 
	C761.784912,186.904648 760.823792,184.961517 762.818237,181.370941 
	C766.527405,174.693573 769.889709,167.817520 773.223022,160.940109 
	C774.776123,157.735794 776.668518,157.265564 779.452698,159.317871 
	C782.660767,161.682617 785.911499,163.989380 789.420898,166.547058 
z"/>
<path fill="#000000" opacity="1.000000" stroke="none" 
	d="
M640.271362,588.763916 
	C634.355835,584.529602 634.357727,584.530640 637.613342,578.557922 
	C638.011597,577.827393 638.421509,577.098083 638.750427,576.335571 
	C642.099426,568.571594 644.470154,568.687439 650.826233,574.410156 
	C658.707520,581.506104 663.348938,590.059082 662.358398,601.283936 
	C661.493958,611.080078 655.289856,617.843689 645.534851,618.224304 
	C642.541992,618.341064 639.538940,618.327576 636.544373,618.240662 
	C630.089661,618.053162 625.734314,614.387695 624.887817,608.138367 
	C624.327820,604.004578 624.513000,599.833862 625.674988,595.760132 
	C626.046265,594.458435 626.279114,593.057007 627.962097,592.903809 
	C629.449890,592.768372 630.371216,593.729797 631.260498,594.793579 
	C636.730408,601.337036 644.181824,602.766846 653.080139,598.545593 
	C649.518494,594.289734 644.826172,591.890137 640.271362,588.763916 
z"/>
<path fill="#000000" opacity="1.000000" stroke="none" 
	d="
M672.464111,488.536255 
	C663.531616,480.488281 663.516052,480.473480 671.481201,472.086823 
	C674.802124,468.590210 678.238342,465.203094 681.559143,461.706390 
	C683.717834,459.433411 685.839478,459.462616 688.043335,461.542572 
	C692.760498,465.994293 697.471497,470.452576 702.173828,474.919952 
	C704.693420,477.313568 704.745789,479.827789 702.345520,482.307068 
	C697.370422,487.445953 692.306519,492.499512 687.372192,497.676880 
	C685.485291,499.656708 684.060364,499.102173 682.346191,497.477936 
	C679.207886,494.504181 675.938965,491.668152 672.464111,488.536255 
z"/>
<path fill="#000000" opacity="1.000000" stroke="none" 
	d="
M618.505615,584.523682 
	C619.747314,594.901001 618.438110,604.539734 615.201538,613.927246 
	C614.647827,615.533264 614.444763,617.970032 612.120850,617.929199 
	C609.831116,617.888977 608.872864,615.811401 608.274841,613.864990 
	C605.484863,604.784607 604.139099,595.409302 602.716187,586.052307 
	C602.366760,583.754883 602.012878,581.457092 601.724976,579.151428 
	C600.495544,569.307617 606.414917,560.345093 616.789124,556.971497 
	C619.210266,565.937927 617.368530,575.119812 618.505615,584.523682 
z"/>
<path fill="#000000" opacity="1.000000" stroke="none" 
	d="
M399.554504,142.576721 
	C409.739563,138.338730 418.227051,132.441666 425.118988,123.756775 
	C421.615326,120.278137 416.891174,117.523430 417.872559,111.552414 
	C428.329926,112.712425 434.681885,125.294594 427.997467,132.938980 
	C415.862457,146.816605 400.697815,155.730850 381.496704,155.234772 
	C373.852386,155.037277 370.352570,150.575256 369.189209,141.095413 
	C369.468781,140.982040 369.946930,140.712143 370.000671,140.779724 
	C377.030151,149.620636 385.807312,147.097992 394.559601,144.545502 
	C396.149536,144.081833 397.657257,143.336502 399.554504,142.576721 
z"/>
<path fill="#000000" opacity="1.000000" stroke="none" 
	d="
M582.567810,141.761108 
	C568.145508,149.252457 544.586182,145.299637 536.876709,133.399323 
	C554.307190,139.567444 570.904968,142.508911 587.284119,131.431244 
	C585.400391,129.664291 583.560974,129.706268 581.908997,129.263931 
	C577.077209,127.970108 575.420044,124.981133 576.959351,120.240944 
	C577.367188,118.985046 577.980042,117.779388 578.621338,116.618385 
	C582.077454,110.361412 585.803833,108.484879 590.475525,110.591110 
	C595.647705,112.922966 597.949646,118.598175 595.950256,124.420799 
	C593.497742,131.562881 589.277832,137.401459 582.567810,141.761108 
z"/>
<path fill="#000000" opacity="1.000000" stroke="none" 
	d="
M414.042603,106.452705 
	C410.681854,121.110542 390.802063,133.013870 380.822876,126.621384 
	C382.118256,124.074821 384.798981,123.761749 387.041504,122.984894 
	C392.818634,120.983620 397.812317,117.728226 402.200012,113.616493 
	C406.312927,109.762291 408.566498,104.939751 408.410309,98.786667 
	C407.393463,99.084114 406.757568,99.196404 406.183990,99.449783 
	C402.186005,101.215866 398.048462,103.339096 394.376892,99.140739 
	C390.381317,94.571945 389.617554,86.651787 392.548981,82.295456 
	C394.673737,79.137901 397.469116,78.173676 401.163177,79.861565 
	C410.659698,84.200714 414.812531,92.453194 414.042603,106.452705 
M401.421478,91.563660 
	C401.955475,91.071388 403.140900,90.534554 402.168854,89.788284 
	C400.314056,88.364250 397.696960,89.467590 396.323059,92.048393 
	C397.895630,93.040977 399.401093,92.676918 401.421478,91.563660 
z"/>
<path fill="#000000" opacity="1.000000" stroke="none" 
	d="
M686.318237,139.353226 
	C687.536621,138.179611 688.373108,137.078293 690.246399,137.045273 
	C693.195007,140.481628 693.175659,144.581619 691.243225,148.376846 
	C688.569885,153.627213 684.293213,158.409241 678.091064,157.271164 
	C671.631775,156.085892 668.410706,158.544540 664.415894,162.934799 
	C656.668518,171.449097 639.545654,170.230988 629.328857,161.227112 
	C623.379639,155.984161 620.959106,151.499496 621.233521,146.127228 
	C623.566956,145.953705 624.326294,147.956802 625.120483,149.356033 
	C630.737000,159.250900 648.586853,163.538528 659.605713,159.196075 
	C664.340515,157.330109 666.914307,154.595444 665.434082,149.408630 
	C664.246765,145.248260 666.735229,142.990509 668.931213,140.508926 
	C671.418640,141.306381 671.681702,143.375412 672.710938,144.802444 
	C674.525452,147.318130 676.665955,149.298294 679.882751,149.717972 
	C682.971252,150.120895 685.404236,149.781769 684.324463,145.624496 
	C683.719604,143.295425 684.698059,141.405746 686.318237,139.353226 
z"/>
<path fill="#000000" opacity="1.000000" stroke="none" 
	d="
M679.102722,181.402771 
	C671.789185,178.807312 667.686829,173.189163 662.281494,167.458755 
	C666.541809,166.923050 668.718140,168.980286 671.179260,170.005081 
	C678.922729,173.229279 686.648560,176.393250 695.275940,173.608795 
	C698.265076,172.644073 701.169373,171.536392 703.030762,168.618622 
	C701.028931,166.799515 698.528137,166.810974 696.493896,165.756577 
	C692.860657,163.873489 691.739075,161.284546 694.086914,157.623917 
	C695.718323,155.080414 697.505920,152.680038 700.098267,151.034576 
	C702.541748,149.483597 705.102966,148.113953 708.019470,149.745865 
	C710.885132,151.349365 712.086121,154.023529 712.275330,157.201965 
	C712.491882,160.841705 711.183105,164.077942 709.434082,167.141953 
	C703.394897,177.721680 690.319519,183.969620 679.102722,181.402771 
z"/>
<path fill="#000000" opacity="1.000000" stroke="none" 
	d="
M376.294220,102.805122 
	C379.914734,109.140663 383.190613,115.224113 384.102112,122.251495 
	C382.168457,122.857468 381.776764,121.512482 381.200867,120.633682 
	C373.709961,109.202515 365.232391,98.523666 356.456055,88.070885 
	C355.056183,86.403625 353.747589,84.675896 353.317169,82.476608 
	C352.934296,80.520187 352.278351,78.238426 354.508118,77.136024 
	C356.378693,76.211235 357.985443,77.625381 359.289581,78.970619 
	C359.980438,79.683296 360.574158,80.499710 361.149750,81.313141 
	C366.142059,88.368179 371.120331,95.433174 376.294220,102.805122 
z"/>
<path fill="#000000" opacity="1.000000" stroke="none" 
	d="
M506.779236,55.485130 
	C511.706268,64.355881 512.443054,74.058342 514.218994,83.468407 
	C515.232117,88.836258 515.793701,94.299713 516.320557,99.743156 
	C516.498962,101.585785 516.903015,103.743797 514.658936,105.587395 
	C511.129974,100.219460 510.663940,94.040382 509.140472,88.279373 
	C507.147095,80.741554 505.511169,73.104507 503.898682,65.472710 
	C503.114777,61.762474 502.250580,57.843781 506.779236,55.485130 
z"/>
<path fill="#000000" opacity="1.000000" stroke="none" 
	d="
M464.134277,141.184158 
	C454.938782,146.568375 446.068634,151.788681 437.177521,156.972916 
	C436.800446,157.192780 436.228241,157.077972 435.380798,157.150345 
	C435.040405,154.532806 436.007019,152.525436 438.007050,151.211288 
	C448.968811,144.008759 460.223114,137.289520 471.833038,131.177643 
	C472.077179,131.049118 472.467987,131.199188 473.266266,131.248947 
	C473.791595,137.710907 467.780914,138.218445 464.134277,141.184158 
z"/>
<path fill="#000000" opacity="1.000000" stroke="none" 
	d="
M530.654419,86.680908 
	C526.677917,90.008041 522.787598,92.764709 516.973145,94.240929 
	C519.521606,89.052513 524.714294,87.684868 527.467773,83.569626 
	C524.924072,80.816544 523.011475,77.717758 525.201538,73.909889 
	C527.013123,70.759903 529.195251,67.844070 533.491394,69.374245 
	C536.716858,70.523048 538.054321,75.001884 536.489563,78.829132 
	C535.269958,81.812164 533.170288,84.190857 530.654419,86.680908 
z"/>
<path fill="#000000" opacity="1.000000" stroke="none" 
	d="
M590.646606,74.313774 
	C594.095337,70.925446 598.853821,70.559868 602.623413,68.160667 
	C600.374756,61.743042 601.338806,58.049923 605.868835,55.673241 
	C610.390198,53.301102 614.420776,55.806778 614.273682,60.870037 
	C614.223450,62.596916 613.866333,64.346123 612.724548,65.526054 
	C606.717529,71.733597 599.608398,75.458786 590.646606,74.313774 
z"/>
<path fill="#000000" opacity="1.000000" stroke="none" 
	d="
M729.872437,116.722900 
	C734.698303,119.315407 735.513611,122.872932 732.598877,126.858345 
	C728.827820,132.014603 715.048767,135.624695 708.187744,132.975510 
	C712.301208,129.838959 717.575195,130.958847 721.586914,128.608063 
	C719.785095,121.112785 722.008179,117.787476 729.872437,116.722900 
z"/>
<path fill="#000000" opacity="1.000000" stroke="none" 
	d="
M522.330933,55.570923 
	C520.573608,52.507969 521.271423,50.091747 523.512756,48.142563 
	C525.666260,46.269760 528.125305,46.510685 530.502136,47.772144 
	C533.069580,49.134739 534.495728,51.256905 534.276672,54.243225 
	C533.991760,58.127480 532.026978,61.174019 529.108887,63.561184 
	C525.130554,66.815674 520.770935,69.370918 515.340088,69.828850 
	C518.785645,64.775063 525.520142,63.502819 528.888428,57.713276 
	C526.265869,58.269615 524.167725,57.702724 522.330933,55.570923 
z"/>
<path fill="#000000" opacity="1.000000" stroke="none" 
	d="
M279.873413,152.860718 
	C282.752747,155.014511 283.799408,159.455292 288.690582,157.494095 
	C289.033051,158.814056 289.325836,159.733307 289.504944,160.674194 
	C289.943054,162.976044 291.743378,166.090027 288.287201,166.978439 
	C285.492432,167.696808 281.352448,170.615494 279.669434,164.999329 
	C279.350647,163.935638 278.519836,163.333359 277.417847,163.382751 
	C271.759064,163.636337 272.330414,159.144333 272.620850,156.074661 
	C272.982117,152.255920 277.122650,153.917297 279.873413,152.860718 
z"/>
<path fill="#000000" opacity="1.000000" stroke="none" 
	d="
M569.464844,158.993439 
	C570.436035,160.082657 571.132751,161.002823 571.801147,161.943146 
	C573.025085,163.665009 575.032959,165.574173 572.098511,167.263657 
	C569.765869,168.606705 567.745850,172.816605 564.271606,168.864365 
	C563.474243,167.957321 562.628418,166.905930 561.382874,167.752991 
	C556.553101,171.037659 555.205750,166.747162 553.737366,163.962769 
	C551.757385,160.208160 556.066223,160.061951 557.677917,158.409302 
	C558.322266,157.748505 559.376465,157.487274 560.520020,156.903229 
	C562.629883,161.257980 565.934143,159.880447 569.464844,158.993439 
z"/>
<path fill="#000000" opacity="1.000000" stroke="none" 
	d="
M446.090637,32.370800 
	C447.810699,34.417969 446.838715,36.232510 445.415039,37.284054 
	C435.424164,44.663410 425.313080,51.879955 414.796204,59.469112 
	C413.755920,56.016537 414.867950,54.070652 416.733398,52.642700 
	C426.117310,45.459538 435.536896,38.318413 446.090637,32.370800 
z"/>
<path fill="#000000" opacity="1.000000" stroke="none" 
	d="
M436.271912,62.548683 
	C436.555908,60.303513 437.020416,58.395603 437.497650,56.490879 
	C437.975159,54.584877 438.990845,53.607250 441.092865,54.310997 
	C442.447632,54.764572 443.937012,54.763763 444.524506,53.271599 
	C446.474304,48.319412 449.756165,50.522137 452.632294,51.797894 
	C456.236786,53.396721 453.644684,56.016918 453.307098,58.202728 
	C452.641144,62.514820 449.680939,61.552525 447.010437,60.698315 
	C443.386322,66.347969 443.058258,66.410706 436.271912,62.548683 
z"/>
<path fill="#000000" opacity="1.000000" stroke="none" 
	d="
M659.501709,189.329803 
	C656.770508,192.930527 654.766968,190.546249 652.803711,188.955582 
	C647.051270,192.108109 646.797729,192.024216 642.153564,185.530487 
	C646.204407,178.881119 647.617493,178.372543 652.382935,181.894440 
	C654.378174,181.855423 655.022156,179.493958 657.277832,179.113556 
	C659.579102,180.284317 661.207825,182.519897 662.865540,184.619049 
	C662.685059,186.870087 660.834656,187.710297 659.501709,189.329803 
z"/>
<path fill="#000000" opacity="1.000000" stroke="none" 
	d="
M564.380493,64.302567 
	C575.529785,57.099243 587.562256,52.559326 599.670288,46.999462 
	C600.168152,50.030739 599.379639,51.883492 597.514648,52.772930 
	C586.478882,58.035908 575.369995,63.145653 564.457031,68.227211 
	C562.970093,66.653679 563.742065,65.629639 564.380493,64.302567 
z"/>
<path fill="#000000" opacity="1.000000" stroke="none" 
	d="
M614.855957,180.415054 
	C609.296448,174.687485 609.891602,171.672058 616.629944,169.664703 
	C619.105713,168.927155 619.105713,168.927170 622.083557,173.252426 
	C624.304077,173.399887 627.478394,170.914581 628.547424,175.043411 
	C629.097839,177.169296 631.991943,179.764435 628.523987,181.452988 
	C625.916077,182.722885 622.574951,186.507370 620.020508,180.970490 
	C618.844238,178.420807 616.827698,180.527115 614.855957,180.415054 
z"/>
<path fill="#000000" opacity="1.000000" stroke="none" 
	d="
M627.915894,98.346466 
	C629.018250,94.719040 628.678162,90.978439 631.726929,88.270035 
	C635.293701,92.334091 630.418091,96.775131 632.850525,100.931847 
	C635.513794,100.300690 634.995300,96.502800 637.528198,95.851913 
	C639.309265,97.402596 638.564758,100.003975 640.201965,101.795647 
	C642.820129,100.033180 641.367432,96.713104 643.674683,94.038376 
	C645.866028,97.575050 645.872009,100.867577 644.353821,104.203957 
	C642.928894,107.335182 640.370667,107.855072 637.269470,106.724503 
	C636.353943,106.390747 635.329224,106.304085 634.344727,106.220306 
	C627.592712,105.645706 627.591858,105.655632 627.915894,98.346466 
z"/>
<path fill="#000000" opacity="1.000000" stroke="none" 
	d="
M570.599854,57.993267 
	C566.984863,61.761086 561.982971,60.433662 558.053284,62.423817 
	C557.003906,62.955276 555.729065,61.852749 555.342712,60.711044 
	C553.721375,55.919598 552.110413,51.097588 553.067383,45.344128 
	C557.964722,47.960220 555.504456,53.845886 559.097473,56.530071 
	C561.795837,55.096905 559.749084,51.937222 561.512268,50.412910 
	C564.174377,50.578987 563.742004,54.306404 566.592896,54.225822 
	C568.221497,51.845577 565.788391,49.581448 566.208313,47.251076 
	C570.577271,48.568024 571.782593,51.295933 570.599854,57.993267 
z"/>
<path fill="#000000" opacity="1.000000" stroke="none" 
	d="
M621.109863,73.572151 
	C634.166870,71.903465 646.846008,72.845299 659.991089,72.870865 
	C659.160767,76.485329 657.100525,77.220345 654.658936,77.225052 
	C644.006104,77.245598 633.352417,77.254440 622.700623,77.133904 
	C620.701355,77.111290 617.347839,77.263786 621.109863,73.572151 
z"/>
<path fill="#000000" opacity="1.000000" stroke="none" 
	d="
M391.662476,59.682640 
	C383.837402,65.176720 376.307953,70.460999 368.649475,75.835815 
	C367.276581,73.180199 368.206116,71.604988 369.424896,70.599091 
	C377.979370,63.539009 387.143951,57.336956 396.775360,50.926277 
	C398.348907,56.252705 394.527222,57.482189 391.662476,59.682640 
z"/>
<path fill="#000000" opacity="1.000000" stroke="none" 
	d="
M503.180664,557.375488 
	C493.731506,559.724243 485.059357,563.705505 475.325806,563.297180 
	C486.357544,557.208618 498.514801,554.710022 510.906097,551.632812 
	C509.768005,555.437683 509.768005,555.437683 503.180664,557.375488 
z"/>
<path fill="#000000" opacity="1.000000" stroke="none" 
	d="
M527.809326,162.680923 
	C534.530762,161.223419 540.844421,159.822647 547.165955,158.458282 
	C547.930237,158.293304 548.737061,158.325150 549.485535,158.268692 
	C550.352173,160.425354 549.185791,161.638870 547.811523,162.002518 
	C538.111816,164.569199 528.385925,167.062500 517.800110,168.605133 
	C519.653809,163.195435 524.197937,164.146835 527.809326,162.680923 
z"/>
<path fill="#000000" opacity="1.000000" stroke="none" 
	d="
M288.032227,109.678894 
	C282.640167,115.949249 277.479614,121.920158 272.091278,128.154602 
	C270.328674,123.482155 280.548035,109.295914 288.507996,104.437981 
	C289.733368,106.180588 289.358643,107.782761 288.032227,109.678894 
z"/>
<path fill="#000000" opacity="1.000000" stroke="none" 
	d="
M686.171265,121.699738 
	C681.825439,117.871658 685.692017,116.088921 687.671448,113.980637 
	C690.925842,110.514450 692.540283,114.087585 694.500793,115.743141 
	C697.916138,118.627319 694.695007,120.163536 693.188293,122.152740 
	C690.753357,125.367393 688.593567,124.705482 686.171265,121.699738 
z"/>
<path fill="#000000" opacity="1.000000" stroke="none" 
	d="
M422.068909,157.156418 
	C421.837555,158.853134 421.485016,160.130112 421.304871,161.430969 
	C420.716064,165.682861 418.034302,164.897980 415.066376,164.355362 
	C411.784302,163.755310 411.113861,162.147110 411.837769,159.137741 
	C413.279907,153.142746 416.039551,152.449936 422.068909,157.156418 
z"/>
<path fill="#000000" opacity="1.000000" stroke="none" 
	d="
M731.120972,142.804016 
	C731.153748,145.196991 730.787476,145.566116 728.348999,146.055435 
	C724.772522,146.773102 710.158386,145.927811 704.848450,144.355911 
	C714.091980,140.042465 722.532043,142.767868 731.120972,142.804016 
z"/>
<path fill="#000000" opacity="1.000000" stroke="none" 
	d="
M534.726196,570.650635 
	C537.620483,566.735779 539.817139,568.731628 542.226257,570.825378 
	C544.956299,573.197998 543.656311,574.899231 541.807373,576.959778 
	C539.726990,579.278320 537.955383,580.206543 535.276978,577.672791 
	C532.951843,575.473267 531.276123,573.579102 534.726196,570.650635 
z"/>
<path fill="#000000" opacity="1.000000" stroke="none" 
	d="
M490.003601,54.473183 
	C490.708893,51.186825 491.655762,48.369347 494.383240,46.649586 
	C495.890289,45.699345 497.487915,44.486816 499.388702,45.498840 
	C501.420349,46.580566 501.738007,48.591496 501.523499,50.640064 
	C501.302979,52.746704 501.029449,54.905998 498.977905,56.146183 
	C496.823303,55.914257 497.625427,53.109753 495.259705,52.619350 
	C493.194946,51.615910 493.299988,58.005169 490.003601,54.473183 
z"/>
<path fill="#000000" opacity="1.000000" stroke="none" 
	d="
M556.793457,570.951660 
	C560.468384,575.269348 556.073425,576.867798 554.191284,578.575623 
	C551.349854,581.154114 549.994263,577.424377 548.367004,576.042908 
	C545.430298,573.549866 548.029724,571.817871 549.595520,569.961182 
	C552.342041,566.704407 554.427551,568.651184 556.793457,570.951660 
z"/>
<path fill="#000000" opacity="1.000000" stroke="none" 
	d="
M346.264740,82.944870 
	C345.613007,84.276657 345.374420,85.529526 343.930817,85.706070 
	C342.140259,85.113029 342.957275,82.531616 340.823914,81.933365 
	C338.673737,82.022003 338.424835,85.148109 335.779633,85.706718 
	C334.852905,81.372871 336.688049,78.429642 339.778290,76.037003 
	C341.388428,74.790314 343.239960,73.804199 345.157501,75.382957 
	C347.576721,77.374771 347.446655,79.929764 346.264740,82.944870 
z"/>
<path fill="#000000" opacity="1.000000" stroke="none" 
	d="
M543.934082,559.723999 
	C548.333618,557.987488 550.448853,561.073181 551.235474,563.776184 
	C552.032043,566.513428 548.947449,568.604065 546.715149,569.628540 
	C544.139221,570.810547 542.910156,567.669495 541.185730,566.325684 
	C539.731628,565.192627 539.963928,563.740112 541.212036,562.455200 
	C542.021790,561.621582 542.832825,560.789246 543.934082,559.723999 
z"/>
<path fill="#000000" opacity="1.000000" stroke="none" 
	d="
M581.893921,570.021545 
	C579.402222,573.100098 577.093323,574.696777 574.088623,571.024353 
	C572.660217,569.278503 570.830383,567.675232 573.377930,565.649109 
	C575.101685,564.278076 576.167236,560.473083 579.224609,562.848816 
	C581.187256,564.373962 585.310364,565.788208 581.893921,570.021545 
z"/>
<path fill="#000000" opacity="1.000000" stroke="none" 
	d="
M368.285767,179.072037 
	C367.374756,179.771423 366.754608,180.376587 365.815521,180.086212 
	C365.750916,175.954407 372.039154,168.952545 380.492828,163.744003 
	C381.245728,166.863785 381.245728,166.863785 368.285767,179.072037 
z"/>
<path fill="#000000" opacity="1.000000" stroke="none" 
	d="
M605.903320,157.080536 
	C602.619568,157.650391 599.745972,158.145386 596.539978,158.697617 
	C599.361450,153.380417 607.541748,150.867126 616.242065,152.379166 
	C614.398987,157.342224 609.622131,155.670441 605.903320,157.080536 
z"/>
</svg>