<svg version="1.1" id="Layer_1" x="0px" y="0px" enable-background="new 0 0 512 192" xml:space="preserve" xmlns="http://www.w3.org/2000/svg" xmlns:svg="http://www.w3.org/2000/svg"  viewBox="0 0 512 192" ><defs id="defs2"/>
<path opacity="1" stroke="none" d="m 318,193 c 0,0 65.33334,0 0,0 m -71.21626,-51.37347 c 5.84335,-1.14211 6.3601,-6.87143 8.64038,-10.73276 6.75883,-11.44518 16.5164,-13.73812 26.96769,-5.70981 5.90833,4.53856 11.40949,9.61778 18.35529,12.74321 8.89575,4.00285 16.36331,2.63365 22.67566,-4.64461 4.5292,-5.22229 9.44467,-6.45981 13.08539,0.87244 2.75857,5.55571 8.84817,7.39683 14.88739,5.70378 5.15207,-1.44438 9.11456,-4.72852 13.21667,-7.83267 6.7945,-5.14151 9.10242,-4.73184 13.70014,2.585 3.02679,4.81682 7.6221,6.48298 13.21609,5.26055 5.61356,-1.2267 9.88971,-4.31294 13.88919,-8.27934 4.57288,-4.5351 9.40833,-3.70417 12.72016,1.71644 3.27963,5.36791 11.18637,8.44312 17.36898,6.88962 5.09702,-1.28075 8.79853,-4.22531 11.85856,-8.4801 3.33267,-4.63384 7.72528,-4.2462 9.98086,0.71251 3.0527,6.71122 9.02371,8.1706 15.28232,8.10637 6.20862,-0.0637 11.43729,-3.11463 13.60364,-9.21991 5.38455,-15.17485 10.32251,-30.50756 15.5769,-45.729558 1.36405,-3.951698 -0.095,-5.235214 -3.84283,-5.210541 -5.99875,0.0395 -12.01322,0.258774 -17.9921,-0.0918 -4.51111,-0.264511 -6.45517,1.599456 -7.73788,5.7649 -3.47028,11.269424 -7.34616,22.414689 -11.11231,33.591959 -1.80829,5.36662 -4.59646,7.28031 -9.1206,5.48013 -4.79468,-1.90784 -1.32657,-5.42723 -0.58234,-7.9441 3.06018,-10.34897 6.51758,-20.58 9.78064,-30.869688 1.44607,-4.560067 0.67661,-5.731697 -4.17828,-5.866585 -5.82819,-0.161926 -11.67914,0.198334 -17.49137,-0.149536 -4.79861,-0.287201 -6.81595,2.012649 -8.11468,6.22528 -3.56678,11.569115 -7.3566,23.070479 -11.15576,34.566399 -1.3017,3.9388 -5.06339,5.74213 -8.69425,4.00254 -3.47613,-1.66547 -1.64865,-4.59973 -0.86856,-6.92233 3.43594,-10.23027 7.04459,-20.402498 10.58371,-30.598185 1.99716,-5.753608 1.0694,-7.095588 -5.14157,-7.177688 -5.66486,-0.07488 -11.35895,0.319954 -16.98938,-0.128991 -5.5697,-0.444114 -8.14154,1.913758 -9.58069,7.062417 -3.21664,11.507713 -6.92999,22.875817 -10.23111,34.361117 -1.16736,4.06168 -4.0755,3.93766 -7.07809,3.51211 -3.83112,-0.54297 -2.2558,-3.19825 -1.80851,-5.38234 2.30384,-11.24957 6.40421,-21.995679 9.24872,-33.093587 1.19251,-4.652649 0.22699,-6.161087 -4.62674,-6.266487 -6.99572,-0.151893 -13.99704,-0.03464 -20.99569,-0.07443 -2.4777,-0.01409 -4.06177,0.917686 -4.74124,3.463073 -1.24195,4.652489 -2.65726,9.258751 -4.00406,13.883194 -2.32059,7.968007 -4.69852,15.919867 -6.94422,23.908907 -1.1911,4.23729 -4.46261,4.25975 -7.57104,3.4838 -3.36841,-0.84083 -1.86203,-3.59244 -1.37812,-5.74403 0.50995,-2.26729 1.00519,-4.54221 1.637,-6.77701 2.34894,-8.30871 4.75665,-16.600785 7.13217,-24.902009 1.64307,-5.741691 0.62277,-8.081047 -4.09799,-8.300285 -14.4888,-0.672874 -28.88697,0.400581 -43.03028,3.614517 -8.92004,2.027001 -17.62533,4.856346 -25.0751,10.556046 -1.26678,0.969192 -2.82181,2.399559 -4.44351,0.976051 -1.39606,-1.225471 -0.89514,-3.060043 -0.40671,-4.694382 0.2854,-0.95494 0.51614,-1.926094 0.7926,-2.883857 4.37393,-15.153077 8.77936,-30.297154 13.11304,-45.461747 1.55267,-5.433422 0.34876,-7.034404 -5.28458,-7.111015 -5.83136,-0.0793 -11.68875,0.307339 -17.48993,-0.11924 -5.30564,-0.390133 -7.78205,1.607388 -9.06031,6.745247 -3.48662,14.014385 -7.39522,27.924133 -11.16689,41.867165 -4.81029,17.782599 -9.65552,35.555769 -14.47305,53.336409 -1.01534,3.74739 0.0536,5.59635 4.33868,5.48313 7.99314,-0.21125 15.9959,-0.0585 24.8579,-0.0757 M 68.499817,140.6304 c 16.311905,0.069 32.623863,0.12671 48.935643,0.21803 2.72105,0.0152 4.63556,-0.5156 5.50089,-3.70501 4.5571,-16.79669 9.39675,-33.51653 14.00412,-50.299884 1.35471,-4.934799 0.20884,-6.282249 -5.0039,-6.415161 -5.82255,-0.148468 -11.65693,0.0313 -17.4716,-0.241905 -3.87271,-0.181953 -5.68216,1.471176 -6.70966,5.086006 -1.99348,7.013199 -4.354,13.922074 -6.56283,20.874044 -0.90452,2.84688 -2.597952,4.37228 -5.839437,4.27904 -5.821373,-0.16745 -11.651581,1.4e-4 -17.477707,-0.0356 -13.338906,-0.0819 -15.987503,2.81141 -10.320862,-14.264988 1.627685,-4.905014 3.867432,-9.777825 3.970405,-15.738602 -7.980022,0 -15.593059,0.12487 -23.198936,-0.0543 -3.636692,-0.08565 -5.414337,1.487205 -6.442112,4.833381 -5.112484,16.644949 -10.3671,33.246179 -15.540096,49.872629 -1.469403,4.72278 -0.878008,5.55153 4.200006,5.57451 12.318461,0.0558 24.637346,0.0179 37.956076,0.0178 M 146.70813,98.992027 c -3.31532,12.163273 -6.55646,24.347553 -9.99078,36.477133 -1.0412,3.6774 -0.2714,5.33486 3.79638,5.22835 5.99153,-0.15686 11.99781,-0.23674 17.98282,0.0116 4.12209,0.17105 6.03925,-1.71192 7.04297,-5.44432 4.48079,-16.66184 9.04794,-33.30056 13.6161,-49.938778 4.17209,-15.195648 8.46347,-30.359093 12.53347,-45.581867 1.22662,-4.587933 -0.0857,-6.148411 -4.79097,-6.309403 -4.3252,-0.147983 -8.65908,-0.0437 -12.98914,-0.04728 -9.19813,-0.0076 -9.14656,0.0073 -11.5088,8.686024 -5.09737,18.727451 -10.25312,37.439007 -15.69205,56.918514 m 17.70248,72.62604 c -0.14848,0.47582 -0.28221,0.95685 -0.44795,1.42658 -0.79214,2.24517 -3.15155,4.60206 -1.06053,6.83996 1.80753,1.9345 4.39822,0.37003 6.59155,-0.22824 16.86202,-4.59923 27.13475,-16.52762 32.73096,-32.06611 7.08043,-19.65963 12.0016,-40.03782 16.95822,-60.355737 0.94985,-3.893524 -0.54214,-5.778549 -4.44108,-5.821846 -5.32853,-0.05918 -10.66263,0.09757 -15.98554,-0.08936 -4.14564,-0.145591 -6.34202,1.508881 -7.50653,5.593834 -8.05188,28.245479 -16.12393,56.490209 -26.8391,84.700919 m 212.0886,-21.25944 c -13.97193,4.7e-4 -27.94464,0.0827 -41.91513,-0.0579 -3.35788,-0.0338 -5.22574,1.09949 -6.20859,4.34067 -1.87668,6.18884 -3.94062,12.32334 -6.04389,18.44016 -1.3764,4.00303 0.0774,5.5695 4.12522,5.56051 19.62707,-0.0435 39.25445,-0.0533 58.88138,0.0145 2.9082,0.01 4.90829,-1.00675 5.59774,-3.83556 1.64475,-6.74795 3.15839,-13.52794 4.71833,-20.29651 0.71438,-3.09968 -0.65903,-4.2407 -3.68543,-4.179 -4.82153,0.0983 -9.64667,0.0181 -15.46963,0.0132 M 81.643257,52.864853 c -0.448868,1.423038 -0.819328,2.876827 -1.362778,4.262779 -1.166565,2.975067 -0.240379,4.493092 2.981041,4.495529 6.652474,0.005 13.304978,-0.02053 19.95744,-0.01366 2.7399,0.0028 4.35712,-1.513405 5.11992,-3.943692 1.93629,-6.168998 3.66449,-12.404884 5.68314,-18.545906 1.34038,-4.077621 -0.3152,-5.674999 -4.17,-5.714687 -5.82048,-0.05992 -11.646049,0.105507 -17.461433,-0.07845 -3.427307,-0.108414 -5.197937,1.3595 -6.08902,4.54906 -1.337021,4.785782 -2.878685,9.514389 -4.65831,14.989018 z" id="path1" fill="currentColor"/>
<path opacity="1" stroke="none" d="m 312.02112,115.46382 c -0.29346,0.84439 -0.47843,1.31049 -0.7125,1.75045 -1.59704,3.00203 -3.56356,6.00549 -7.37109,5.45715 -3.53213,-0.50869 -6.63708,-6.78567 -5.84302,-10.92718 0.74106,-3.86509 3.21536,-6.43428 7.11829,-6.40589 4.72937,0.0344 6.36224,3.5483 6.80325,7.74185 0.0694,0.66029 0.0624,1.32862 0.005,2.38362 z" id="simaran_path2"  fill="currentColor"/>
</svg>